<?xml version="1.0" encoding="UTF-8" standalone="no"?>
<svg
   width="817.74139"
   height="1151.0037"
   viewBox="0 0 817.74139 1151.0037"
   version="1.1"
   id="svg62"
   sodipodi:docname="favicon.svg"
   inkscape:version="1.4 (e7c3feb100, 2024-10-09)"
   xml:space="preserve"
   inkscape:export-filename="svg_export.png"
   inkscape:export-xdpi="96"
   inkscape:export-ydpi="96"
   xmlns:inkscape="http://www.inkscape.org/namespaces/inkscape"
   xmlns:sodipodi="http://sodipodi.sourceforge.net/DTD/sodipodi-0.dtd"
   xmlns="http://www.w3.org/2000/svg"
   xmlns:svg="http://www.w3.org/2000/svg"><defs
     id="defs66" /><sodipodi:namedview
     id="namedview64"
     pagecolor="#505050"
     bordercolor="#ffffff"
     borderopacity="1"
     inkscape:showpageshadow="0"
     inkscape:pageopacity="0"
     inkscape:pagecheckerboard="1"
     inkscape:deskcolor="#505050"
     showgrid="false"
     inkscape:zoom="0.43086638"
     inkscape:cx="250.65776"
     inkscape:cy="537.28954"
     inkscape:window-width="1440"
     inkscape:window-height="888"
     inkscape:window-x="0"
     inkscape:window-y="0"
     inkscape:window-maximized="1"
     inkscape:current-layer="svg62" /><desc
     id="desc2">Outline to SVG export</desc><g
     id="g60"
     style="fill:#ffffff;stroke:#000000;stroke-opacity:1;stroke-width:0.01051655;stroke-dasharray:none;stroke-linejoin:round"
     transform="matrix(285.26468,0,0,285.26468,-524.76995,46.656629)"><path
       fill-rule="evenodd"
       fill="#000000"
       stroke="#555555"
       stroke-width="0"
       opacity="1"
       d="m 2.0476806,0.2491985 10e-8,1.9e-7 0.00684,0.0104402 v 2e-8 l 0.00731,0.0112167 0.00848,0.0130293 v 0 l 0.011022,0.016923 v 0 0 l 0.018438,0.0283077 10e-8,1.6e-7 0.027178,0.0434846 6e-7,1.01e-6 0.023941,0.050372 10e-8,6e-8 0.022481,0.0481282 3e-7,7.4e-7 3e-7,7.5e-7 0.013107,0.04599 v 0 0 l 0.011499,0.0403463 2e-7,8e-7 2e-7,8.1e-7 0.00433,0.0376273 v 1.6e-7 l 0.0034,0.0346037 10e-8,8.5e-7 4.338e-4,0.032674 -1e-7,7.3e-7 -0.00194,0.0322294 v 5e-8 l -0.00205,0.0314559 -10e-8,9.7e-7 -0.00493,0.0299834 -0.00481,0.0292314 v 1.1e-7 l -0.00492,0.0278565 -10e-8,2.2e-7 -0.0054,0.027007 -0.00532,0.026576 v 7e-8 l -0.00503,0.0264365 v 0 l -0.00444,0.0263402 -0.00441,0.0261313 v 0 0 l -0.00445,0.0263867 v 2e-7 1.7e-7 1.1e-7 l -0.00235,0.026909 v 0 l -0.00227,0.026358 v 0 0 l -0.00227,0.02645 v 1e-7 l -0.00126,0.026905 v 1e-7 3e-7 0 l 7.058e-4,0.026538 v 0 0 l 6.916e-4,0.026133 6.913e-4,0.026151 0.00131,0.026457 10e-8,4e-7 0.00386,0.025536 v 0 l 0.0038,0.025114 v 0 0 l 0.00376,0.024916 v 0 l 0.00374,0.024757 1e-7,10e-8 0.00415,0.024512 10e-8,2e-7 v 2e-7 l 0.0063,0.022936 v 0 0 l 0.00563,0.020533 v 0 l 0.00494,0.017989 v 0 0 l 0.00399,0.014522 0.00335,0.012213 v 0 l 0.00272,0.0099 0.00265,0.00966 0.00242,0.00882 v 0 l 0.0024,0.00877 0.00233,0.00846 v 0 0 l 0.00233,0.00846 10e-8,2e-7 v -2e-7 l 0.00247,-0.00821 v 0 l 0.00247,-0.00822 v 0 0 l 0.00248,-0.00823 0.00263,-0.00874 v 0 l 0.00292,-0.00971 0.00326,-0.010824 v -10e-8 l 0.00361,-0.012354 v -1e-7 l 0.00403,-0.014226 v 0 0 l 0.00455,-0.016083 v 0 l 0.00558,-0.019711 v -1e-7 l 0.00624,-0.021243 1e-7,-2e-7 0.00709,-0.022 0.0072,-0.022362 v 0 l 0.00724,-0.022468 1e-7,-2e-7 0.00769,-0.02211 1e-7,-3e-7 0.00851,-0.021773 0.00852,-0.021782 v 0 0 l 0.00842,-0.021566 0.00828,-0.021187 10e-8,-2e-7 0.0087,-0.020628 10e-8,-2e-7 0.00926,-0.020606 v 0 0 l 0.00928,-0.02065 10e-8,-2e-7 0.0097,-0.02041 v -1e-7 l 0.01,-0.020366 v 0 0 l 0.00997,-0.020307 v -1e-7 l 0.010131,-0.019993 10e-8,-2e-7 0.010464,-0.0196825 0.010344,-0.0194559 v 0 l 0.010076,-0.0189492 1e-7,-1.9e-7 0.010144,-0.0181257 v -8e-8 l 0.010004,-0.0174834 0.00982,-0.0171647 v 0 l 0.00929,-0.0162343 0.00833,-0.0145661 5e-7,-8.3e-7 6e-7,-7.7e-7 8e-7,-7e-7 7e-7,-6.4e-7 8e-7,-5.5e-7 8e-7,-4.8e-7 9e-7,-4e-7 9e-7,-3.1e-7 1e-6,-2.1e-7 1e-6,-1.2e-7 9e-7,-2e-8 1e-6,6e-8 10e-7,1.6e-7 9e-7,2.7e-7 9e-7,3.4e-7 9e-7,4.3e-7 0.016331,0.00915 3e-7,1.7e-7 0.014377,0.00867 v 2e-8 l 0.016288,0.009684 v 3e-8 l 0.019372,0.0111637 0.021284,0.0116139 4e-7,2.2e-7 0.023071,0.0111643 3e-7,1.4e-7 0.023863,0.0104381 2e-7,7e-8 0.024467,0.009764 10e-8,5e-8 3e-7,8e-8 10e-8,4e-8 0.025293,0.00806 3e-7,9e-8 0.025461,0.007061 5e-7,1.1e-7 0.025791,0.005853 10e-8,2e-8 3e-7,6e-8 1e-7,10e-9 0.025923,0.00414 v 0 l 0.025865,0.003387 1e-7,10e-9 2e-7,1e-8 2e-7,2e-8 0.026087,0.001355 h 10e-8 l 0.025489,8.1155e-4 h 10e-8 3e-7 1e-7 l 0.025204,-0.001007 v 0 l 0.024298,-0.001688 2e-7,-2e-8 0.023525,-0.002428 10e-8,-2e-8 3e-7,-3e-8 1e-7,-10e-9 0.022278,-0.003841 0.018323,-0.003158 2e-7,-5e-8 v -9e-8 -5e-8 l -0.00135,-0.004558 v -1.3e-7 l -10e-8,-10e-8 v 0 l -1e-7,-3e-8 -10e-8,-2e-8 -0.018313,-0.002542 -3e-7,-4e-8 -0.020384,-0.00332 -3e-7,-4e-8 -0.022321,-0.004265 -3e-7,-6e-8 -0.023138,-0.005157 -2e-7,-6e-8 -0.023364,-0.005824 -5e-7,-1.4e-7 -0.022981,-0.006983 -2e-7,-7e-8 -0.022383,-0.007354 -4e-7,-1.7e-7 -0.021789,-0.008446 -4e-7,-1.5e-7 -0.02134,-0.009306 -3e-7,-1.3e-7 -0.020866,-0.009881 -7e-7,-3.3e-7 -0.02005,-0.0113109 -3e-7,-2.1e-7 -0.019497,-0.0120598 -4e-7,-2.2e-7 -0.01898,-0.0128285 -6e-7,-4.6e-7 -0.018065,-0.0143537 -3e-7,-3.2e-7 -0.017683,-0.0155397 -4e-7,-3.6e-7 -0.01788,-0.0174923 -5e-7,-4.8e-7 -0.018674,-0.0208543 -5e-7,-5.8e-7 -0.018717,-0.024365 -6e-7,-8.2e-7 -4e-7,-8.6e-7 -4e-7,-9.2e-7 -3e-7,-9.5e-7 -3e-7,-9.8e-7 -10e-8,-9.9e-7 v -1e-6 l 10e-8,-9.9e-7 3e-7,-9.8e-7 2e-7,-9.5e-7 4e-7,-9.3e-7 5e-7,-8.7e-7 5e-7,-8.3e-7 6e-7,-7.7e-7 7e-7,-7e-7 8e-7,-6.3e-7 0.010133,-0.007389 v 0 l 0.010811,-0.007884 10e-8,-3e-8 0.012265,-0.008804 6e-7,-3.8e-7 0.013687,-0.008481 0.014365,-0.008901 10e-8,-8e-8 0.015132,-0.009069 3e-7,-1.9e-7 0.016121,-0.008851 v 0 l 0.016777,-0.009212 3e-7,-1.6e-7 0.017417,-0.008829 2e-7,-8e-8 0.017807,-0.008614 2e-7,-8e-8 0.018011,-0.008271 5e-7,-2e-7 0.018256,-0.007263 5e-7,-1.7e-7 0.018137,-0.006179 1e-6,-2.9e-7 0.018413,-0.004128 1e-6,-1.6e-7 9e-7,-7e-8 9e-7,1e-8 10e-7,1e-7 9e-7,1.9e-7 9e-7,2.7e-7 9e-7,3.7e-7 8e-7,4.3e-7 8e-7,5.2e-7 7e-7,5.8e-7 0.037797,0.0331447 3e-7,2.9e-7 0.036617,0.0293116 2e-7,8e-8 2e-7,1.5e-7 v 6e-8 l 0.032787,0.0225317 10e-8,4e-8 3e-7,1.8e-7 1e-7,5e-8 0.028136,0.016705 10e-8,6e-8 2e-7,1e-7 10e-8,8e-8 0.026603,0.0131061 10e-8,4e-8 3e-7,1.1e-7 1e-7,5e-8 0.025935,0.0104633 3e-7,1.3e-7 0.025789,0.009152 5e-7,1.4e-7 0.025897,0.006444 3e-7,9e-8 0.025849,0.005293 1e-7,2e-8 3e-7,4e-8 10e-8,2e-8 0.025579,0.00325 5e-7,5e-8 0.025665,0.00207 h 2e-7 l 2e-7,2e-8 h 1e-7 l 0.024607,1.8794e-4 v 0 l 0.023139,-6.646e-5 h 10e-8 l 3e-7,-2e-8 0.019817,-0.002149 v 0 l 0.016446,-0.001784 0.014297,-0.001551 3e-7,-4e-8 0.012879,-0.00192 10e-8,-2e-8 3e-7,-4e-8 10e-8,-2e-8 0.011865,-0.002618 0.00971,-0.002145 v 0 l 0.00928,-0.002048 0.0082,-0.00181 0.00799,-0.001762 v 0 l 0.00735,-0.001623 0.00735,-0.001623 2e-7,-4e-8 -2e-7,-5e-8 -0.00765,-0.001276 -0.00853,-0.001423 v 0 l -0.00677,-0.001129 v 0 l -0.00862,-0.001437 -0.00889,-0.001482 -0.00893,-0.001492 -2e-7,-5e-8 -0.011644,-0.002248 v 0 0 l -0.011912,-0.0023 -0.014276,-0.002757 -2e-7,-5e-8 -0.015851,-0.003386 -10e-8,-3e-8 -0.018373,-0.00419 -2e-7,-5e-8 -0.020793,-0.005122 -2e-7,-6e-8 -0.021516,-0.00589 -3e-7,-1.1e-7 -0.021555,-0.006807 -3e-7,-9e-8 -0.0213,-0.007417 -5e-7,-1.8e-7 -0.020741,-0.008488 -6e-7,-2.7e-7 -0.019632,-0.009562 -5e-7,-2.8e-7 -0.018586,-0.0104599 -6e-7,-3.6e-7 -0.017474,-0.0114641 -7e-7,-4.8e-7 -0.015977,-0.0125082 -7e-7,-6.3e-7 -0.014021,-0.0133593 -5e-7,-4.9e-7 -0.012031,-0.013154 -3e-7,-3.7e-7 -0.01017,-0.0122691 -5e-7,-7.5e-7 -0.00779,-0.0114299 -0.00673,-0.009877 -5e-7,-8.2e-7 -4e-7,-8.8e-7 -4e-7,-9e-7 -3e-7,-9.4e-7 -1e-7,-9.6e-7 v -9.6e-7 -9.7e-7 l 1e-7,-9.6e-7 2e-7,-9.4e-7 3e-7,-9.2e-7 4e-7,-8.8e-7 5e-7,-8.5e-7 6e-7,-7.9e-7 6e-7,-7.3e-7 7e-7,-6.7e-7 8e-7,-6e-7 8e-7,-5.3e-7 8e-7,-4.3e-7 9e-7,-3.6e-7 9e-7,-2.7e-7 0.013344,-0.003151 0.014727,-0.003478 2e-7,-5e-8 0.016639,-0.003583 6e-7,-1.1e-7 0.018608,-0.002795 0.020228,-0.003037 0.021338,-0.003204 v 0 l 0.022191,-0.003332 0.022527,-0.003383 10e-8,-3e-8 0.022611,-0.003001 6e-7,-5e-8 0.023147,-0.001738 0.023408,-0.001757 v 0 l 0.023513,-0.001766 2e-7,-1e-8 0.023537,-0.001343 2e-7,-10e-9 0.023677,-9.572e-4 0.023858,-9.6458e-4 v 0 0 l 0.023897,-9.6603e-4 1e-7,-10e-9 0.023933,-6.7147e-4 v 0 l 0.023972,-6.1445e-4 0.023891,-6.1222e-4 v 0 l 0.02367,-6.2454e-4 h 10e-8 l 0.023191,-7.0021e-4 0.022199,-6.6963e-4 v 0 0 l 0.020205,-6.0975e-4 0.017376,-5.2421e-4 10e-7,2e-8 1e-6,1.1e-7 1e-6,2.1e-7 9e-7,3e-7 9e-7,3.9e-7 9e-7,4.8e-7 8e-7,5.6e-7 7e-7,6.4e-7 7e-7,7e-7 6e-7,7.6e-7 6e-7,8.3e-7 3e-7,8.7e-7 4e-7,9.1e-7 3e-7,9.5e-7 2e-7,9.6e-7 10e-8,9.7e-7 v 9.8e-7 l -0.00239,0.03656 v 0 l -0.00189,0.0289521 v 5e-8 l -0.00181,0.0258074 v 3e-8 l -0.00186,0.0252773 v 0 0 l -0.00184,0.0250414 v 2e-8 l -0.00187,0.0249325 -0.00189,0.0249013 -0.00189,0.0249128 v 2e-8 l -0.00182,0.0249337 v 1e-8 l -0.0018,0.0249394 v 0 0 l -0.0018,0.0249882 v 6e-8 l -0.00157,0.0250203 v 1e-8 l -0.00155,0.0249923 v 1e-8 l -0.00151,0.0250333 v 8e-8 l -0.00114,0.0249662 -0.00113,0.0247905 v 4e-8 l -9.895e-4,0.0245813 v 10e-8 l -5.568e-4,0.024089 v 0 l -5.41e-4,0.023406 v 0 l -3.902e-4,0.022595 1.006e-4,0.021718 9.67e-5,0.020885 9.44e-5,0.020414 6.115e-4,0.020326 v 10e-8 l 7.617e-4,0.0206 v 0 0 l 7.887e-4,0.021503 v 0 l 0.0011,0.022704 0.00173,0.023872 0.00182,0.02493 v 0 l 0.00215,0.026115 0.00295,0.026448 0.00296,0.02655 v 1e-7 l 0.00326,0.026462 0.00387,0.025592 0.00365,0.024122 v 0 l 0.00336,0.022186 1e-7,10e-7 v 10e-7 l -1e-7,9e-7 -0.00306,0.021864 -1e-7,2e-7 -0.00371,0.022848 -0.00383,0.023575 v 0 l -0.00392,0.024107 v 1e-7 l -0.00416,0.024394 v 10e-8 l -0.00459,0.024728 -0.00464,0.025009 v 0 l -0.00467,0.025168 -0.00393,0.025077 v 1e-7 l -0.00381,0.024539 v 0 0 l -0.00369,0.023795 -10e-8,9e-7 -0.00561,0.022344 -3e-7,10e-7 -0.00783,0.022024 -0.00789,0.022209 v 0 l -0.00781,0.021983 v 0 0 l -0.00764,0.021519 v 0 l -0.00744,0.021021 -0.00657,0.020344 v 0 0 l -0.00635,0.01966 -0.00626,0.019423 v 0 0 l -0.00636,0.019693 v 0 l -0.00661,0.02047 -0.00633,0.021512 v 1e-7 l -0.00632,0.022173 v 0 0 l -0.00649,0.022783 -0.00668,0.023456 -0.00631,0.024164 v 10e-8 l -0.00596,0.024535 v 0 0 l -0.006,0.024726 v 10e-8 l -0.00601,0.025112 v 3e-7 l -0.00503,0.025454 -0.00501,0.025384 v 0 0 l -0.00505,0.025594 -10e-8,4e-7 -0.00395,0.025864 v 0 l -0.0039,0.025739 v 10e-8 l -0.00379,0.025938 v 3e-7 l -0.00282,0.02599 v 0 l -0.00279,0.025841 v 1e-7 l -0.00241,0.025915 -0.00183,0.025661 v 0 l -0.00182,0.025387 v 1e-7 l -0.0013,0.025045 v 10e-8 l -0.00109,0.02429 -0.00106,0.023603 v 0 l -7.106e-4,0.022645 v 0 l -6.506e-4,0.021624 -6.247e-4,0.020754 v 0 l -5.757e-4,0.020226 v 0 l -5.524e-4,0.020045 -5.597e-4,0.020305 v 0 l -5.714e-4,0.020731 v 10e-8 l -7.514e-4,0.021062 v 0 l -7.459e-4,0.020909 -7.079e-4,0.019838 v 0 l -6.32e-4,0.017717 -10e-8,1e-6 -10e-8,9e-7 -3e-7,8e-7 -3e-7,9e-7 -5e-7,9e-7 -5e-7,8e-7 -6e-7,8e-7 -7e-7,7e-7 -7e-7,7e-7 -8e-7,5e-7 -8e-7,5e-7 -8e-7,4e-7 -0.023057,0.00924 v 0 0 l -0.024308,0.00974 -0.025175,0.010085 v 0 0 l -0.026232,0.010509 -0.027808,0.011141 h -2e-7 v 0 h -10e-8 l -2e-7,2e-7 -0.026184,0.016704 -2e-7,2e-7 -0.025525,0.017637 v 0 0 l -0.025674,0.01774 v 0 l -0.026398,0.01824 -2e-7,1e-7 v 10e-8 l -1e-7,10e-8 -0.022621,0.023859 -2e-7,2e-7 -0.021436,0.024276 v 0 0 l -0.02162,0.024485 v 0 l -2e-7,3e-7 -0.019708,0.027537 v 0 l -10e-8,2e-7 -1e-7,2e-7 v 0 l -0.015503,0.03057 v 0 0 l -0.015551,0.030663 -1e-7,2e-7 -10e-8,10e-8 v 10e-8 l -0.01315,0.032508 -10e-8,2e-7 v 0 2e-7 l -1e-7,10e-8 -0.0073,0.034041 v 0 l -0.00733,0.03414 -2e-7,2e-7 v 2e-7 l -0.00358,0.03478 -10e-8,3e-7 v 0 l 10e-8,2e-7 v 0 l 0.00159,0.033974 v 0 0 l 0.0016,0.034068 v 0 3e-7 l 0.00614,0.033991 v 1e-7 l 1e-7,2e-7 v 0 l 0.010143,0.032254 v 0 0 l 0.010046,0.031944 v 10e-8 l 1e-7,1e-7 v 10e-8 l 0.014478,0.03021 2e-7,3e-7 v 0 l 0.017371,0.027509 0.017063,0.027023 3e-7,4e-7 0.019615,0.02518 10e-8,10e-8 10e-8,10e-8 1e-7,2e-7 h 10e-8 l 0.022782,0.021221 v 0 0 l 0.022171,0.020652 v 0 0 l 0.021956,0.020451 1e-7,1e-7 h 10e-8 v 10e-8 h 10e-8 l 0.025335,0.015054 3e-7,2e-7 0.024529,0.013353 v 0 l 0.023883,0.013 0.023937,0.01303 v 0 l 2e-7,10e-8 2e-7,1e-7 v 0 l 0.026315,0.00937 2e-7,1e-7 h 2e-7 l 1e-7,10e-8 0.02566,0.00686 v 0 l 0.024879,0.00665 v 0 0 l 0.024457,0.00653 v 0 l 0.024232,0.00648 h 10e-8 l 2e-7,10e-8 h 10e-8 l 0.024915,0.00309 h 10e-8 2e-7 2e-7 l 0.022399,0.00103 v 0 l 0.019204,8.814e-4 v 0 l 0.017098,7.847e-4 0.01259,5.781e-4 v 0 l 0.011018,5.058e-4 0.00985,4.524e-4 v 0 l 0.00862,3.955e-4 v 0 l 0.00807,3.7e-4 0.00795,3.65e-4 v 0 l 0.00776,3.558e-4 0.00776,3.557e-4 h 2e-7 l -2e-7,-10e-8 -0.00699,-0.0035 -0.00699,-0.0035 -0.00713,-0.00357 v 0 l -0.0072,-0.0036 -0.0079,-0.00395 v 0 l -0.00887,-0.00444 v 0 0 l -0.010221,-0.00512 -0.011583,-0.0058 -0.014257,-0.00714 v 0 0 l -0.016544,-0.00828 -0.017795,-0.00891 -4e-7,-2e-7 -0.018232,-0.010145 -7e-7,-4e-7 -6e-7,-4e-7 -0.017687,-0.0136 v 0 l -0.018022,-0.013857 v 0 l -0.017965,-0.013813 -0.017623,-0.01355 v 0 0 l -0.017082,-0.013135 -7e-7,-5e-7 -5e-7,-6e-7 -0.014347,-0.01534 -5e-7,-5e-7 -0.013551,-0.016875 -0.013417,-0.01671 v 0 0 l -0.013044,-0.016245 -0.012253,-0.015259 -6e-7,-7e-7 -5e-7,-8e-7 -0.00868,-0.016439 -4e-7,-9e-7 -0.00706,-0.017644 -0.00718,-0.017949 v 0 0 l -0.00707,-0.017678 v 0 0 l -0.00658,-0.016456 -2e-7,-8e-7 -3e-7,-8e-7 -1e-7,-9e-7 -0.00205,-0.017321 v -9e-7 l -6.138e-4,-0.018007 v 0 l -6.213e-4,-0.01823 -6.063e-4,-0.017788 v 0 0 l -5.723e-4,-0.016785 1e-7,-1.2e-6 2e-7,-1.1e-6 2e-7,-1.1e-6 0.00518,-0.016206 v -2e-7 l 0.00567,-0.01673 0.00577,-0.016986 v 0 0 l 0.00569,-0.016771 v -10e-8 l 0.00558,-0.016157 5e-7,-1e-6 5e-7,-9e-7 6e-7,-9e-7 0.010488,-0.013628 0.010984,-0.01427 0.011358,-0.014758 v 0 0 l 0.011511,-0.014956 v 0 l 0.011323,-0.014712 7e-7,-9e-7 0.012795,-0.013217 2e-7,-2e-7 0.013266,-0.013018 0.012956,-0.012714 7e-7,-7e-7 8e-7,-5e-7 0.014789,-0.00975 7e-7,-5e-7 0.016683,-0.00904 v 0 l 0.017292,-0.00937 6e-7,-3e-7 0.018747,-0.00858 h 10e-8 l 0.019642,-0.0088 v 0 0 l 0.020162,-0.00903 0.020604,-0.00923 v 0 l 0.020885,-0.00936 h 1e-7 l 0.021003,-0.00914 1e-6,-4e-7 0.022359,-0.0071 v 0 l 0.023376,-0.00742 0.023777,-0.00755 1.1e-6,-3e-7 0.025697,-0.00482 h 10e-8 l 0.027144,-0.00476 h 1e-7 l 0.02796,-0.00456 h 4e-7 l 0.028806,-0.00354 v 0 l 0.028641,-0.00353 h 10e-8 l 0.027659,-0.00314 5e-7,-10e-8 0.027307,-0.00178 0.027172,-0.00178 v 0 0 l 0.026835,-0.00175 5e-7,-1e-7 0.026535,-5.498e-4 v 0 l 0.02623,-4.895e-4 0.025334,-4.722e-4 v 0 l 0.023903,-4.018e-4 1e-6,2e-7 0.021914,0.00181 v 0 0 l 0.020528,0.00169 0.018553,0.00153 v 0 l 0.015986,0.00132 v 0 l 0.012877,0.00106 0.011461,9.447e-4 9e-7,1e-7 1e-6,3e-7 9e-7,3e-7 8e-7,4e-7 9e-7,5e-7 8e-7,6e-7 7e-7,6e-7 7e-7,7e-7 6e-7,8e-7 6e-7,8e-7 4e-7,9e-7 4e-7,10e-7 10e-8,9e-7 2e-7,10e-7 10e-8,1e-6 v 1e-6 l -10e-8,9e-7 -3e-7,1e-6 -3e-7,8e-7 -3e-7,9e-7 -6e-7,9e-7 -0.010555,0.016381 v 0 l -0.010977,0.017036 -6e-7,9e-7 -0.012567,0.015424 -2e-7,2e-7 -0.013176,0.015263 -8e-7,8e-7 -0.015371,0.014247 -2e-7,2e-7 -0.016322,0.01409 -1e-6,8e-7 -0.018086,0.012119 -5e-7,3e-7 -0.018916,0.011142 -6e-7,3e-7 -0.019657,0.00995 -9e-7,4e-7 -0.020149,0.00768 -5e-7,2e-7 -0.019354,0.00616 -5e-7,10e-8 -0.017103,0.00455 -7e-7,2e-7 -0.014744,0.00288 -3e-7,1e-7 -0.013403,0.00218 -4e-7,10e-8 -0.0122,0.00155 -4e-7,10e-8 -0.01039,9.096e-4 h -2e-7 l -0.00974,7.273e-4 h -3e-7 l -0.00958,4.993e-4 v 0 l -0.00943,4.915e-4 h -1e-7 l 1e-7,1e-7 0.00923,0.00226 0.00943,0.00231 v 0 0 l 0.00973,0.00238 h 10e-8 l 4e-7,10e-8 v 0 l 0.010929,0.00204 v 0 l 5e-7,1e-7 v 0 l 0.012189,0.00162 v 0 l 0.014376,0.00191 h 1e-7 3e-7 10e-8 l 0.016146,0.00101 0.018639,6.863e-4 v 0 h 5e-7 v 0 l 0.021948,-3.813e-4 h 1e-7 l 0.024122,-0.00123 h 1e-7 3e-7 10e-8 l 0.024934,-0.00314 v 0 l 0.025477,-0.00398 h 10e-8 l 4e-7,-1e-7 v 0 l 0.025737,-0.00569 h 1e-7 l 4e-7,-10e-8 v -10e-8 l 0.025623,-0.00712 h 10e-8 l 0.025805,-0.00811 h 1e-7 l 10e-8,-10e-8 3e-7,-10e-8 0.026656,-0.011022 v 0 l 5e-7,-2e-7 v 0 l 0.027081,-0.012852 v 0 l 4e-7,-10e-8 v 0 l 0.027561,-0.015097 2e-7,-1e-7 v -10e-8 h 2e-7 l 0.02731,-0.018402 3e-7,-3e-7 h 1e-7 l 0.026626,-0.021814 2e-7,-2e-7 v -10e-8 l 10e-8,-1e-7 0.025256,-0.024999 v -10e-8 l 1e-7,-1e-7 2e-7,-2e-7 v 0 l 0.021501,-0.028755 v -10e-8 l 10e-8,-1e-7 v -10e-8 l 0.01434,-0.031705 v -10e-8 l 10e-8,-2e-7 v 0 l 0.00927,-0.031696 v -2e-7 l 10e-8,-2e-7 v -10e-8 l 0.00625,-0.029751 0.00579,-0.027548 v 0 l 0.00554,-0.026403 v 0 l 0.00546,-0.025994 1e-7,-3e-7 0.00438,-0.026061 0.00366,-0.025685 v 0 0 l 0.00361,-0.0253 0.00357,-0.025101 v 0 0 l 0.00356,-0.02498 0.00355,-0.024923 v -1e-7 l 0.00334,-0.024959 v -10e-8 l 0.00284,-0.02497 0.00282,-0.024761 v 0 l 0.00281,-0.02463 v 0 l 0.0028,-0.024546 0.00278,-0.024487 0.00278,-0.024454 v 0 l 0.00278,-0.024444 v 0 l 0.00266,-0.024431 v 0 l 0.00253,-0.024382 0.00253,-0.024314 v 0 0 l 0.00252,-0.024271 0.00252,-0.024239 v 0 l 0.00252,-0.024209 v 0 0 l 0.00252,-0.024186 0.00252,-0.024162 v 0 l 0.00251,-0.024126 v 0 l 0.00254,-0.024129 0.00256,-0.024138 0.00256,-0.024126 0.00256,-0.024119 v 0 l 0.00256,-0.024112 v 0 l 0.00256,-0.024103 0.00256,-0.024089 0.00256,-0.024072 v 0 l 0.00255,-0.024048 v 0 l 0.00255,-0.023979 v -10e-8 l 0.00274,-0.023931 v 0 l 0.00282,-0.023942 0.00282,-0.023986 0.00283,-0.024017 v 0 0 l 0.00283,-0.024031 0.00283,-0.024034 0.00283,-0.024031 v 0 l 0.00283,-0.024018 0.00282,-0.023986 v 0 l 0.00282,-0.023908 v -1e-7 l 0.00298,-0.023854 v -1e-7 l 0.00329,-0.02383 v 0 l 0.0033,-0.023881 v 0 0 l 0.0033,-0.023914 0.00331,-0.023941 v 0 l 0.00331,-0.023962 v 0 0 l 0.00331,-0.023977 v 0 0 l 0.00331,-0.023968 0.00331,-0.023944 v 0 l 0.0033,-0.023908 0.00329,-0.023837 v -2e-7 l 0.00378,-0.023645 v -1e-7 l 0.00397,-0.023606 0.00398,-0.023664 0.00398,-0.02369 v 0 l 0.00398,-0.023693 0.00398,-0.023688 v 0 l 0.00398,-0.023676 v 0 l 0.00397,-0.023641 0.00397,-0.023591 v 0 l 0.00395,-0.023514 0.00396,-0.023413 2e-7,-4e-7 0.0049,-0.023195 0.00493,-0.023342 v 0 l 0.00495,-0.023453 v 0 l 0.00497,-0.023534 0.00498,-0.023592 v 0 l 0.00498,-0.0236101 0.00498,-0.0236006 v 0 l 0.00497,-0.023571 0.00496,-0.0235095 v 0 0 l 0.00493,-0.023321 10e-8,-3.4e-7 0.00573,-0.0231836 10e-8,-2.2e-7 0.00629,-0.0231274 v 0 0 l 0.00631,-0.0231918 0.00635,-0.0233496 0.00635,-0.0233503 v 0 l 0.00636,-0.0234074 0.00636,-0.0233743 v 0 0 l 0.00633,-0.0232642 0.0063,-0.0231594 v 0 l 0.00611,-0.022477 2e-7,-5.1e-7 0.00708,-0.0214499 10e-8,-2.6e-7 0.00735,-0.0203977 0.007,-0.0194379 0.00638,-0.0177102 v 0 l 0.00564,-0.0156613 v 0 0 l 0.00522,-0.014508 0.00426,-0.0118492 v 0 l 0.0041,-0.0113663 v 0 0 l 0.00394,-0.010943 0.00381,-0.0106069 0.0038,-0.0105654 v 0 l 0.00368,-0.0102118 0.00368,-0.0102115 v -10e-9 0 l 0.00367,-0.0101952 v 0 l 0.00367,-0.0101819 0.00367,-0.0101817 10e-8,-1.8e-7 -10e-8,1.4e-7 -0.00651,0.008553 -0.00651,0.008553 v 0 l -0.00655,0.008601 -0.00663,0.008699 v 0 l -0.00663,0.008699 v 0 0 l -0.0068,0.008926 v 0 0 l -0.00687,0.00902 -0.007,0.009207 v 0 l -0.00766,0.010058 -0.00766,0.0100581 v 0 l -0.00919,0.0120714 -0.00949,0.0124608 -0.012227,0.0160604 v 0 0 l -0.012826,0.0168472 v 0 l -0.013656,0.0179386 -1e-7,7e-8 -0.014358,0.0195765 -1e-7,7e-8 -1e-7,1.7e-7 v 5e-8 l -0.01197,0.0212225 v 0 0 l -0.012045,0.0213555 -0.012075,0.0214087 v 0 0 l -0.012097,0.0214472 -0.012119,0.0214874 v 0 l -0.01215,0.0215418 -0.012196,0.0216248 v 0 0 l -0.01227,0.0217569 -0.012458,0.0220875 v 1e-8 l -2e-7,4e-7 v 10e-9 l -0.011323,0.0226858 v 1e-8 l -2e-7,4.1e-7 v 3e-8 l -0.01,0.0231082 -0.00994,0.0229847 v 0 0 l -0.0099,0.0228857 -0.00988,0.0228482 v 0 0 l -0.00988,0.022839 -0.00989,0.0228561 -0.00991,0.022903 v 0 0 l -0.00995,0.023009 -0.010037,0.023194 v 0 l -2e-7,4e-7 v 0 l -0.00885,0.023795 -0.00815,0.024013 v 0 0 l -0.0081,0.02385 -0.00806,0.023755 -0.00804,0.0237 -0.00803,0.023675 v 0 0 l -0.00803,0.023665 -0.00803,0.023675 v 0 0 l -0.00804,0.023714 -0.00812,0.023913 -1e-7,4e-7 -0.00705,0.024277 v 1e-7 l -0.00656,0.024282 -0.00651,0.024094 v 0 l -0.00649,0.02399 v 0 l -0.00647,0.023933 v 0 0 l -0.00647,0.023923 v 0 l -0.00647,0.023934 v 0 l -0.00648,0.023968 v 0 0 l -0.0065,0.024028 -0.00657,0.024321 -10e-8,3e-7 -0.00562,0.024457 v 1e-7 l -0.00532,0.024422 -0.0053,0.024331 -0.00529,0.024262 v 0 l -0.00528,0.024217 v 0 l -0.00527,0.024193 -0.00527,0.024199 v 0 0 l -0.00528,0.024229 v 0 0 l -0.0053,0.02433 v 0 l -0.00521,0.024501 -1e-7,2e-7 -0.00438,0.02461 v 0 l -0.00437,0.024515 -0.00435,0.024447 v 0 l -0.00434,0.024405 v 0 0 l -0.00434,0.02438 -0.00434,0.024374 v 0 l -0.00434,0.024399 v 0 0 l -0.00435,0.024471 v 0 l -0.00433,0.024592 -0.00365,0.024619 v 0 l -0.00364,0.024535 v 0 0 l -0.00362,0.024472 v 0 l -0.00362,0.024431 -0.00361,0.024409 v 0 l -0.00361,0.024404 v 0 l -0.00362,0.024419 -0.00362,0.024459 v 10e-8 l -0.00323,0.024571 v 0 l -0.00313,0.024467 -0.00312,0.024382 -0.00312,0.02433 v 0 0 l -0.00311,0.024293 -0.00311,0.024264 -0.00311,0.024242 v 0 l -0.00297,0.02424 v 0 l -0.00291,0.024125 v 0 l -0.0029,0.024047 v 0 l -0.00289,0.023952 v 0 l -0.00288,0.023831 v 0 0 l -0.00285,0.023696 v 10e-8 l -0.00321,0.023604 -0.00323,0.023602 v 0 l -0.00323,0.023577 -0.00321,0.023448 v 2e-7 l -0.00233,0.022798 -2e-7,9e-7 -2e-7,8e-7 -3e-7,9e-7 -0.00928,0.023444 -4e-7,8e-7 -6e-7,9e-7 -5e-7,8e-7 -7e-7,7e-7 -7e-7,7e-7 -7e-7,6e-7 -0.016913,0.011843 -7e-7,3e-7 -8e-7,5e-7 -8e-7,3e-7 -0.018523,0.00658 -9e-7,3e-7 -1e-6,2e-7 -0.018972,0.00278 -8e-7,10e-8 h -8e-7 l -0.018547,-1.897e-4 -1.3e-6,-10e-8 -0.018234,-0.0026 -1.2e-6,-4e-7 -0.017248,-0.00457 -1.1e-6,-4e-7 -0.015795,-0.00623 -1.2e-6,-6e-7 -0.014413,-0.00794 -6e-7,-3e-7 -6e-7,-5e-7 -0.012529,-0.00955 -8e-7,-6e-7 -8e-7,-7e-7 -6e-7,-8e-7 -0.00926,-0.013157 -4e-7,-5e-7 -0.00868,-0.014104 -4e-7,-8e-7 -4e-7,-8e-7 -3e-7,-1.1e-6 -0.00461,-0.015833 v 0 l -0.00473,-0.016267 -2e-7,-8e-7 -10e-8,-8e-7 -0.0022,-0.017291 -10e-8,-5e-7 -0.00153,-0.0185 v -4e-7 l -8.535e-4,-0.01979 v -10e-8 L 3.603168,2.5000217 v -10e-8 l -5.411e-4,-0.021458 v -1e-7 l -4.581e-4,-0.021652 v -3e-7 l 1.188e-4,-0.02111 v -2e-7 l 4.907e-4,-0.01931 4.387e-4,-0.017249 v -9e-7 l 2e-7,-10e-7 2e-7,-9e-7 3e-7,-9e-7 4e-7,-9e-7 6e-7,-8e-7 6e-7,-7e-7 6e-7,-8e-7 7e-7,-5e-7 8e-7,-6e-7 8e-7,-5e-7 8e-7,-4e-7 9e-7,-4e-7 0.0173,-0.00544 9e-7,-2e-7 1.1e-6,-2e-7 0.019159,-0.00193 h 9e-7 l 0.021091,-1.622e-4 h 9e-7 l 0.02218,0.00169 8e-7,10e-8 0.022192,0.00343 7e-7,2e-7 0.020098,0.00456 5e-7,1e-7 0.01735,0.00491 2e-7,1e-7 0.015435,0.00479 5e-7,3e-7 0.013247,0.00512 0.012596,0.00487 5e-7,2e-7 0.010725,0.00489 h 1e-7 l 0.01058,0.00498 0.010884,0.00513 2e-7,1e-7 -1e-7,-2e-7 -0.0076,-0.00951 -0.00767,-0.00959 -1e-7,-1e-7 -10e-8,-10e-8 -1e-7,-3e-7 -0.00858,-0.00907 -10e-8,-1e-7 -3e-7,-3e-7 v 0 l -0.010044,-0.00955 v -10e-8 l -3e-7,-2e-7 -1e-7,-1e-7 -0.012136,-0.010147 v 0 l -4e-7,-3e-7 v 0 l -0.013802,-0.01035 -2e-7,-1e-7 v -10e-8 l -2e-7,-10e-8 -0.017322,-0.010753 v 0 l -3e-7,-2e-7 h -1e-7 l -0.021072,-0.011345 -1e-7,-10e-8 -3e-7,-10e-8 h -10e-8 l -0.023819,-0.010728 -10e-8,-10e-8 -3e-7,-10e-8 h -10e-8 l -0.025837,-0.00959 h -10e-8 l -3e-7,-10e-8 -1e-7,-1e-7 -0.02954,-0.00867 h -10e-8 -10e-8 l -2e-7,-10e-8 -0.036103,-0.00737 -9e-7,-3e-7 -1e-6,-3e-7 -8e-7,-3e-7 -9e-7,-5e-7 -8e-7,-8e-7 -7e-7,-6e-7 -7e-7,-7e-7 -6e-7,-8e-7 -4e-7,-8e-7 -4e-7,-9e-7 -3e-7,-8e-7 -3e-7,-9e-7 -2e-7,-1e-6 v -1.1e-6 l -7.17e-5,-0.01769 v 0 l -8.09e-5,-0.019951 v -10e-8 l 1.615e-4,-0.021128 v -1e-7 l 3.68e-4,-0.019678 3.251e-4,-0.017375 v -1.1e-6 l 2e-7,-1e-6 2e-7,-9e-7 5e-7,-9e-7 4e-7,-9e-7 6e-7,-8e-7 6e-7,-8e-7 7e-7,-8e-7 8e-7,-6e-7 8e-7,-6e-7 9e-7,-5e-7 9e-7,-4e-7 1e-6,-2e-7 0.032316,-0.00781 1e-6,-3e-7 h 1.1e-6 l 0.024293,-5.492e-4 h 9e-7 l 0.022429,0.00151 8e-7,10e-8 0.021876,0.0032 7e-7,10e-8 0.020023,0.00434 5e-7,1e-7 0.017362,0.00469 3e-7,1e-7 0.014652,0.00449 5e-7,2e-7 0.012501,0.0046 h 10e-8 l 0.011563,0.00447 2e-7,1e-7 0.010478,0.00431 5e-7,2e-7 0.009,0.00424 0.00906,0.00427 v 0 0 l 0.0091,0.00428 2e-7,1e-7 -10e-8,-2e-7 -0.00634,-0.00792 -0.0065,-0.00813 -0.00688,-0.00818 -2e-7,-2e-7 -10e-8,-1e-7 -0.00812,-0.00772 v 0 0 l -0.00975,-0.00927 -3e-7,-3e-7 -0.011468,-0.00891 v 0 l -0.013201,-0.00981 -10e-8,-2e-7 v 0 l -2e-7,-10e-8 -0.017668,-0.010703 v -1e-7 l -3e-7,-10e-8 -1e-7,-10e-8 -0.020913,-0.010966 -10e-8,-10e-8 -2e-7,-1e-7 h -1e-7 l -0.022835,-0.010102 h -1e-7 l -3e-7,-10e-8 h -10e-8 l -0.023717,-0.00874 -10e-8,-1e-7 -3e-7,-10e-8 h -10e-8 l -0.023691,-0.0072 v 0 l -4e-7,-2e-7 h -10e-8 l -0.022104,-0.0054 h -10e-8 l -4e-7,-10e-8 v 0 l -0.019297,-0.00348 -10e-7,-2e-7 -9e-7,-3e-7 -9e-7,-3e-7 -8e-7,-5e-7 -8e-7,-5e-7 -7e-7,-6e-7 -7e-7,-8e-7 -6e-7,-7e-7 -4e-7,-8e-7 -5e-7,-9e-7 -4e-7,-8e-7 -3e-7,-9e-7 -2e-7,-1e-6 -10e-8,-9e-7 v -1e-6 l 7.787e-4,-0.0221 9.083e-4,-0.025774 10e-8,-4e-7 0.00211,-0.025918 0.00186,-0.022891 1e-7,-9e-7 2e-7,-1e-6 3e-7,-9e-7 5e-7,-9e-7 4e-7,-8e-7 6e-7,-8e-7 6e-7,-7e-7 7e-7,-7e-7 7e-7,-6e-7 8e-7,-6e-7 8e-7,-4e-7 9e-7,-3e-7 9e-7,-3e-7 0.024711,-0.00623 9e-7,-2e-7 10e-7,-10e-8 0.02261,-0.00112 h 10e-7 l 0.022441,0.00103 h 7e-7 l 0.021946,0.00273 6e-7,2e-7 0.020524,0.00396 5e-7,1e-7 0.018634,0.00461 5e-7,2e-7 0.015522,0.00476 3e-7,1e-7 0.013267,0.00457 4e-7,1e-7 0.011734,0.00454 v 10e-8 l 0.01112,0.00435 6e-7,3e-7 0.0099,0.00466 v 0 l 0.00988,0.00465 0.00987,0.00465 2e-7,10e-8 -10e-8,-2e-7 -0.0069,-0.00862 v 0 l -0.00706,-0.00883 -1e-7,-10e-8 -2e-7,-3e-7 h -1e-7 l -0.00769,-0.0086 -1e-7,-2e-7 -2e-7,-1e-7 v -10e-8 l -0.00875,-0.00833 h -1e-7 l -0.010228,-0.00942 -4e-7,-3e-7 -0.012607,-0.00945 -3e-7,-2e-7 -0.014754,-0.010145 v -1e-7 l -3e-7,-2e-7 h -10e-8 l -0.018284,-0.010953 -1e-7,-10e-8 -2e-7,-1e-7 -2e-7,-10e-8 -0.021622,-0.010755 h -10e-8 l -3e-7,-1e-7 h -1e-7 l -0.023533,-0.00979 h -10e-8 l -3e-7,-1e-7 -10e-8,-10e-8 -0.024712,-0.00841 v 0 l -4e-7,-2e-7 h -10e-8 l -0.025012,-0.00687 v 0 l -5e-7,-1e-7 v 0 l -0.024168,-0.00534 -9e-7,-2e-7 -9e-7,-3e-7 -9e-7,-4e-7 -7e-7,-5e-7 -8e-7,-6e-7 -7e-7,-6e-7 -7e-7,-8e-7 -5e-7,-8e-7 -5e-7,-9e-7 -5e-7,-8e-7 -3e-7,-9e-7 -2e-7,-1e-6 -1e-7,-9e-7 -10e-8,-1e-6 10e-8,-9e-7 0.0011,-0.011766 v 0 l 0.00108,-0.011509 0.00133,-0.014169 v -1e-7 l 0.00157,-0.014684 v -4e-7 l 0.00232,-0.015335 v 0 l 0.00216,-0.014258 0.00209,-0.013789 2e-7,-10e-7 2e-7,-9e-7 4e-7,-10e-7 6e-7,-9e-7 5e-7,-8e-7 7e-7,-8e-7 7e-7,-7e-7 7e-7,-6e-7 9e-7,-4e-7 8e-7,-5e-7 1e-6,-4e-7 9e-7,-3e-7 0.034948,-0.00794 1e-6,-2e-7 1.1e-6,-10e-8 0.025792,-3.786e-4 h 1e-6 l 0.022509,0.00182 8e-7,10e-8 0.021479,0.00336 7e-7,2e-7 0.019441,0.00444 4e-7,2e-7 0.016985,0.00479 h 2e-7 l 0.014346,0.0044 6e-7,2e-7 0.011856,0.00451 h 10e-8 l 0.011135,0.0043 3e-7,10e-8 0.010091,0.00421 4e-7,1e-7 0.0089,0.00419 0.00887,0.00418 v 0 0 l 0.00886,0.00417 2e-7,1e-7 -2e-7,-2e-7 -0.00618,-0.00772 -0.00636,-0.00794 v -1e-7 l -0.0067,-0.0081 -2e-7,-2e-7 v -1e-7 l -0.00806,-0.00767 -0.00929,-0.00884 h -10e-8 v -10e-8 l -2e-7,-3e-7 -0.011262,-0.00895 -0.012951,-0.00971 h -10e-8 v 0 l -3e-7,-2e-7 -0.016477,-0.0101 -10e-8,-10e-8 -3e-7,-2e-7 h -1e-7 l -0.020085,-0.010841 -10e-8,-1e-7 -3e-7,-2e-7 v 0 l -0.022329,-0.010184 h -1e-7 l -3e-7,-10e-8 -10e-8,-1e-7 -0.023178,-0.00883 h -10e-8 l -4e-7,-10e-8 v -1e-7 l -0.02283,-0.0072 v 0 l -4e-7,-10e-8 h -1e-7 l -0.020764,-0.00539 -3e-7,-1e-7 -0.016891,-0.0037 -1e-6,-3e-7 -10e-7,-3e-7 -9e-7,-5e-7 -8e-7,-5e-7 -8e-7,-6e-7 -6e-7,-7e-7 -7e-7,-7e-7 -6e-7,-10e-7 -5e-7,-8e-7 -4e-7,-9e-7 -3e-7,-1e-6 -2e-7,-10e-7 -10e-8,-1e-6 10e-8,-10e-7 v -10e-7 l 0.00247,-0.016622 v 0 l 0.00273,-0.01836 v -1e-7 l 0.00306,-0.020062 v -10e-8 l 0.00328,-0.020357 v 0 0 l 0.00312,-0.019383 2e-7,-9e-7 3e-7,-1e-6 4e-7,-9e-7 4e-7,-8e-7 5e-7,-9e-7 7e-7,-7e-7 8e-7,-6e-7 7e-7,-6e-7 8e-7,-6e-7 9e-7,-4e-7 9e-7,-4e-7 0.018227,-0.00639 1.1e-6,-4e-7 1.2e-6,-2e-7 0.020232,-0.00215 9e-7,-1e-7 0.021251,-2.087e-4 h 8e-7 l 0.021769,0.00162 h 7e-7 l 0.021556,0.00326 7e-7,1e-7 0.019472,0.0043 5e-7,1e-7 0.016832,0.00458 3e-7,10e-8 0.014567,0.00447 5e-7,2e-7 0.012617,0.00465 10e-8,1e-7 0.011653,0.00451 2e-7,10e-8 0.010436,0.00432 5e-7,2e-7 0.00893,0.00421 0.00898,0.00423 0.00899,0.00424 2e-7,1e-7 -10e-8,-2e-7 -0.00627,-0.00783 -0.00642,-0.00803 -0.00679,-0.00814 -2e-7,-2e-7 v -1e-7 l -0.00809,-0.0077 -0.00974,-0.00925 -3e-7,-3e-7 -0.011716,-0.00914 -0.01322,-0.00982 -2e-7,-1e-7 h -10e-8 l -2e-7,-1e-7 -0.01706,-0.010335 v 0 l -3e-7,-2e-7 h -10e-8 l -0.02052,-0.010838 h -1e-7 l -3e-7,-2e-7 h -10e-8 l -0.022964,-0.010244 -10e-8,-10e-8 -3e-7,-1e-7 v 0 l -0.024417,-0.00904 v 0 l -4e-7,-1e-7 -10e-8,-1e-7 -0.025778,-0.00781 h -1e-7 l -4e-7,-1e-7 v 0 l -0.028217,-0.00666 -9e-7,-2e-7 -1e-6,-4e-7 -9e-7,-4e-7 -8e-7,-5e-7 -8e-7,-8e-7 -7e-7,-6e-7 -5e-7,-8e-7 -6e-7,-8e-7 -5e-7,-8e-7 -4e-7,-9e-7 -3e-7,-1e-6 -2e-7,-9e-7 -10e-8,-1e-6 v -10e-7 l 10e-8,-1e-6 0.00194,-0.01377 0.00203,-0.014429 v 0 0 l 0.00232,-0.016482 v -4e-7 l 0.00314,-0.017174 v -10e-8 l 0.0033,-0.016951 v 0 l 0.00319,-0.016364 2e-7,-9e-7 3e-7,-10e-7 4e-7,-9e-7 6e-7,-8e-7 6e-7,-7e-7 6e-7,-7e-7 7e-7,-7e-7 8e-7,-6e-7 9e-7,-5e-7 8e-7,-5e-7 9e-7,-3e-7 0.018956,-0.0059 1e-6,-2e-7 10e-7,-10e-8 0.020373,-0.00194 h 10e-7 l 0.021265,-5e-7 h 9e-7 l 0.021518,0.00188 7e-7,10e-8 0.021422,0.00336 7e-7,1e-7 0.019725,0.00454 5e-7,1e-7 0.016896,0.00482 2e-7,10e-8 0.014062,0.00431 7e-7,2e-7 0.012318,0.00472 v 0 l 0.011072,0.00428 3e-7,2e-7 0.00981,0.00414 3e-7,2e-7 0.00874,0.00412 0.00869,0.0041 0.00867,0.00409 2e-7,10e-8 -10e-8,-2e-7 -0.00604,-0.00756 v 0 l -0.00622,-0.00777 h -1e-7 l -0.00649,-0.00797 v 0 l -2e-7,-2e-7 h -10e-8 l -0.00786,-0.00748 v 0 0 l -0.00928,-0.00883 -2e-7,-1e-7 -10e-8,-10e-8 -1e-7,-1e-7 -0.011418,-0.00921 -10e-8,-2e-7 -0.013015,-0.00976 -10e-8,-1e-7 v 0 l -3e-7,-2e-7 -0.016603,-0.010248 h -10e-8 l -3e-7,-2e-7 v 0 l -0.020192,-0.010933 h -10e-8 l -2e-7,-1e-7 -10e-8,-2e-7 -0.022622,-0.010329 -10e-8,-1e-7 -3e-7,-1e-7 -1e-7,-10e-8 -0.024061,-0.00913 v 0 l -4e-7,-2e-7 h -10e-8 l -0.025516,-0.00793 h -10e-8 l -4e-7,-1e-7 v 0 l -0.028155,-0.00688 -9e-7,-3e-7 -9e-7,-3e-7 -9e-7,-4e-7 -8e-7,-7e-7 -7e-7,-5e-7 -6e-7,-7e-7 -7e-7,-7e-7 -5e-7,-8e-7 -5e-7,-9e-7 -4e-7,-8e-7 -3e-7,-1e-6 -3e-7,-9e-7 -10e-8,-1e-6 10e-8,-9e-7 v -1e-6 l 2e-7,-9e-7 0.00324,-0.014751 0.00339,-0.015424 v 0 0 l 0.00366,-0.016624 1e-7,-4e-7 0.00432,-0.016369 v 0 l 0.00419,-0.015542 0.00398,-0.014801 3e-7,-9e-7 4e-7,-1e-6 5e-7,-9e-7 7e-7,-8e-7 6e-7,-8e-7 8e-7,-7e-7 8e-7,-6e-7 8e-7,-4e-7 9e-7,-5e-7 1e-6,-3e-7 0.021264,-0.00635 10e-7,-3e-7 1e-6,-1e-7 0.021876,-0.00187 1.1e-6,-1e-7 0.022405,5.628e-4 8e-7,1e-7 0.022315,0.00235 7e-7,1e-7 0.02141,0.00375 5e-7,1e-7 0.019639,0.00455 6e-7,2e-7 0.015857,0.00486 h 2e-7 l 0.0144,0.00474 5e-7,2e-7 0.012704,0.00491 v 0 l 0.012055,0.00469 6e-7,2e-7 0.00984,0.00463 v 0 0 l 0.01,0.00471 v 0 0 l 0.010162,0.00479 h 2e-7 l -10e-8,-1e-7 -0.00709,-0.00886 -0.00721,-0.00903 h -1e-7 l -2e-7,-3e-7 v -10e-8 l -0.00794,-0.00875 -1e-7,-1e-7 -10e-8,-1e-7 -10e-8,-10e-8 -0.00926,-0.00881 -2e-7,-2e-7 -0.011267,-0.00997 -1e-7,-10e-8 -10e-8,-1e-7 -2e-7,-2e-7 -0.013184,-0.00988 v 0 l -3e-7,-2e-7 h -10e-8 l -0.015678,-0.010316 v -10e-8 l -3e-7,-1e-7 -10e-8,-1e-7 -0.019623,-0.011222 h -10e-8 l -2e-7,-10e-8 -10e-8,-1e-7 -0.022675,-0.010844 h -1e-7 l -3e-7,-1e-7 -10e-8,-10e-8 -0.024309,-0.0096 h -10e-8 l -3e-7,-1e-7 -1e-7,-10e-8 -0.02535,-0.00819 h -10e-8 l -3e-7,-1e-7 h -1e-7 l -0.025811,-0.00672 -9e-7,-3e-7 -9e-7,-3e-7 -9e-7,-5e-7 -8e-7,-5e-7 -8e-7,-7e-7 -6e-7,-8e-7 -6e-7,-7e-7 -6e-7,-8e-7 -4e-7,-9e-7 -4e-7,-9e-7 -3e-7,-1e-6 -2e-7,-9e-7 -10e-8,-1e-6 10e-8,-10e-7 1e-7,-1e-6 2e-7,-9e-7 0.00317,-0.011836 v 0 l 0.0031,-0.01153 0.00367,-0.013656 v -10e-8 l 0.00392,-0.013852 10e-8,-5e-7 0.00483,-0.014053 0.00468,-0.013602 v 0 l 0.00459,-0.013339 3e-7,-9e-7 4e-7,-8e-7 6e-7,-8e-7 5e-7,-8e-7 7e-7,-7e-7 7e-7,-6e-7 8e-7,-6e-7 8e-7,-5e-7 9e-7,-4e-7 1e-6,-3e-7 0.021216,-0.00603 9e-7,-3e-7 1e-6,-1e-7 0.021437,-0.00178 h 1.1e-6 l 0.021745,5.684e-4 8e-7,2e-7 0.021508,0.00221 6e-7,10e-8 0.020969,0.00357 6e-7,1e-7 0.019558,0.0045 6e-7,3e-7 0.015811,0.00476 h 10e-8 l 0.013496,0.00426 6e-7,2e-7 0.012051,0.00466 v 0 l 0.01063,0.00411 4e-7,2e-7 0.00933,0.00404 3e-7,2e-7 0.00849,0.004 0.00839,0.00395 v 0 l 0.00837,0.00394 2e-7,10e-8 -10e-8,-2e-7 -0.00583,-0.00729 v 0 l -0.00599,-0.0075 -0.00621,-0.00777 -2e-7,-2e-7 v 0 l -0.00761,-0.00732 v -1e-7 l -0.00884,-0.00841 -1e-7,-10e-8 -3e-7,-2e-7 v -10e-8 L 3.9453,1.1747581 v 0 l -3e-7,-3e-7 v 0 l -0.012647,-0.00948 -10e-8,-2e-7 -2e-7,-1e-7 -10e-8,-1e-7 -0.015405,-0.00985 -1e-7,-1e-7 -3e-7,-2e-7 v 0 l -0.019531,-0.010986 -1e-7,-1e-7 -2e-7,-1e-7 -1e-7,-1e-7 -0.021962,-0.010407 -1e-7,-1e-7 -3e-7,-1e-7 h -10e-8 l -0.02338,-0.00922 -10e-8,-1e-7 -3e-7,-10e-8 h -10e-8 l -0.024402,-0.00791 v 0 l -4e-7,-1e-7 h -10e-8 l -0.024748,-0.00651 -10e-7,-3e-7 -7e-7,-3e-7 -9e-7,-6e-7 -8e-7,-5e-7 -8e-7,-6e-7 -7e-7,-7e-7 -6e-7,-7e-7 -5e-7,-8e-7 -5e-7,-9e-7 -4e-7,-9e-7 -3e-7,-9e-7 -1e-7,-9e-7 -10e-8,-1e-6 v -9e-7 -1e-6 l 2e-7,-9e-7 2e-7,-1e-6 0.00446,-0.013198 v 0 l 0.00464,-0.013721 0.00544,-0.016112 10e-8,-2e-7 0.00591,-0.016557 v 0 l 0.00595,-0.016275 v 0 l 0.00567,-0.015513 4e-7,-9e-7 4e-7,-9e-7 6e-7,-8e-7 6e-7,-7e-7 8e-7,-7e-7 7e-7,-7e-7 8e-7,-5e-7 8e-7,-4e-7 9e-7,-4e-7 1e-6,-3e-7 0.026064,-0.0066 1.1e-6,-2e-7 1e-6,-1e-7 0.023589,-9.985e-4 h 9e-7 l 0.022696,0.00118 8e-7,1e-7 0.022178,0.0029 7e-7,1e-7 0.022111,0.00449 6e-7,2e-7 0.021791,0.00587 5e-7,1e-7 0.021439,0.00705 5e-7,10e-8 0.020954,0.0081 6e-7,2e-7 0.016082,0.00743 0.00775,0.00358 2e-7,1e-7 v -2e-7 l -0.00396,-0.011187 v -1e-7 l -1e-7,-2e-7 v 0 l -1e-7,-10e-8 -0.013906,-0.015095 -3e-7,-3e-7 -0.019467,-0.017241 -4e-7,-4e-7 -0.02104,-0.015083 -10e-8,-1e-7 -10e-8,-10e-8 -2e-7,-1e-7 -0.022271,-0.0131007 -2e-7,-9e-8 -2e-7,-9e-8 -10e-8,-5e-8 -0.023205,-0.0112762 -2e-7,-5e-8 -2e-7,-1.1e-7 -10e-8,-4e-8 -0.02383,-0.009574 v -2e-8 l -3e-7,-1.2e-7 -10e-8,-3e-8 -0.023914,-0.007913 -10e-8,-10e-9 -4e-7,-1.2e-7 v -1e-8 l -0.02345,-0.006327 -9e-7,-3e-7 -9e-7,-3.8e-7 -9e-7,-4.6e-7 -8e-7,-5.3e-7 -7e-7,-6.2e-7 -7e-7,-6.8e-7 -6e-7,-7.4e-7 -6e-7,-8e-7 -3e-7,-8.5e-7 -4e-7,-8.7e-7 -3e-7,-9.2e-7 -2e-7,-9.4e-7 -10e-8,-9.5e-7 -1e-7,-9.6e-7 1e-7,-9.5e-7 2e-7,-9.5e-7 3e-7,-9.1e-7 3e-7,-9e-7 0.00556,-0.0125436 v 0 0 l 0.00576,-0.013004 0.00682,-0.0154007 v -6e-8 l 0.00712,-0.0157774 v -3e-8 l 0.00709,-0.0155649 v 0 0 l 0.00678,-0.0148782 5e-7,-9e-7 5e-7,-8.4e-7 6e-7,-8e-7 7e-7,-7.2e-7 8e-7,-6.3e-7 8e-7,-5.6e-7 9e-7,-4.8e-7 1e-6,-3.7e-7 9e-7,-2.9e-7 0.02777,-0.006572 10e-7,-1.9e-7 1e-6,-7e-8 0.023591,-7.0544e-4 9e-7,2e-8 0.022524,0.001327 8e-7,8e-8 0.021955,0.003025 7e-7,1.2e-7 0.020612,0.004287 6e-7,1.2e-7 0.018291,0.004827 4e-7,1.1e-7 0.015267,0.004682 5e-7,1.7e-7 0.012793,0.004681 2e-7,8e-8 0.01158,0.004479 10e-8,7e-8 0.01048,0.004304 4e-7,2.1e-7 0.00909,0.004279 0.00909,0.004281 v 0 l 0.00909,0.004282 2e-7,7e-8 -10e-8,-1.6e-7 -0.00634,-0.007927 -0.00652,-0.008156 -0.00696,-0.008243 -2e-7,-2.2e-7 -1e-7,-8e-8 -0.00823,-0.00782 -0.00969,-0.009211 -3e-7,-3.2e-7 -0.012144,-0.009382 v -3e-8 l -0.014144,-0.010263 -1e-7,-7e-8 -2e-7,-8e-8 -1e-7,-1.2e-7 -0.017822,-0.0107956 -1e-7,-5e-8 -3e-7,-1.3e-7 v -5e-8 l -0.021463,-0.0110321 -10e-8,-3e-8 -2e-7,-1.4e-7 -1e-7,-4e-8 -0.023017,-0.009967 -1e-7,-2e-8 -3e-7,-1.2e-7 -10e-8,-3e-8 -0.023677,-0.008548 -10e-8,-10e-9 -4e-7,-1.2e-7 v -2e-8 l -0.022913,-0.006836 -9e-7,-3.4e-7 -9e-7,-4.2e-7 -9e-7,-5e-7 -7e-7,-5.9e-7 -7e-7,-6.7e-7 -7e-7,-7.4e-7 -6e-7,-8e-7 -5e-7,-8.6e-7 -5e-7,-9e-7 -3e-7,-9.4e-7 -2e-7,-9.6e-7 -1e-7,-9.9e-7 v -1e-6 -9.9e-7 l 2e-7,-9.7e-7 2e-7,-9.7e-7 3e-7,-9.3e-7 0.00568,-0.0130831 v 0 l 0.00591,-0.013612 0.0066,-0.0152015 v -1.9e-7 l 0.00702,-0.015286 10e-8,-7e-8 0.0069,-0.0147528 v 0 0 l 0.00655,-0.0139976 4e-7,-8.6e-7 5e-7,-8.1e-7 7e-7,-7.6e-7 6e-7,-7.1e-7 8e-7,-6.2e-7 8e-7,-5.5e-7 8e-7,-4.6e-7 9e-7,-3.9e-7 1e-6,-2.8e-7 0.027031,-0.006925 1.1e-6,-2.1e-7 1e-6,-9e-8 0.023008,-9.429e-4 9e-7,1e-8 0.021966,0.001103 7e-7,6e-8 0.021339,0.002709 7e-7,1.1e-7 0.020192,0.00392 5e-7,1.1e-7 0.018386,0.004544 5e-7,1.4e-7 0.014916,0.004575 3e-7,9e-8 0.01277,0.004324 4e-7,1.5e-7 0.011157,0.004315 v 0 0 l 0.010214,0.00395 5e-7,2.1e-7 0.00851,0.003833 2e-7,7e-8 0.00808,0.003802 0.00788,0.00371 v 1e-8 l 0.00786,0.003703 2e-7,8e-8 -1e-7,-1.6e-7 -0.00547,-0.006843 -0.00561,-0.007018 -0.00589,-0.007377 -2e-7,-2.2e-7 -1e-7,-9e-8 -0.00711,-0.007146 v 0 l -0.00805,-0.007655 v -3e-8 l -0.00966,-0.008637 -1e-7,-6e-8 -10e-8,-7e-8 -2e-7,-1.8e-7 -0.012075,-0.009055 -4e-7,-2.3e-7 -0.01417,-0.009704 -1e-7,-2e-8 -3e-7,-2.1e-7 v -4e-8 l -0.017811,-0.0107114 -10e-8,-7e-8 -2e-7,-8e-8 -10e-8,-7e-8 -0.021198,-0.0105442 -1e-7,-3e-8 -3e-7,-1.4e-7 -1e-7,-3e-8 -0.022546,-0.009458 -10e-8,-2e-8 -3e-7,-1.3e-7 -1e-7,-3e-8 -0.023247,-0.008179 -1e-7,-10e-9 -4e-7,-1.2e-7 v -2e-8 l -0.022372,-0.006415 -1e-6,-3.2e-7 -8e-7,-3.9e-7 -9e-7,-4.8e-7 -8e-7,-5.6e-7 -6e-7,-6.3e-7 -7e-7,-7e-7 -6e-7,-7.6e-7 -5e-7,-8.1e-7 -5e-7,-8.7e-7 -4e-7,-8.9e-7 -2e-7,-9.2e-7 -2e-7,-9.6e-7 v -9.6e-7 -9.6e-7 l 10e-8,-9.6e-7 2e-7,-9.4e-7 2e-7,-9.3e-7 4e-7,-8.8e-7 4e-7,-8.6e-7 0.00684,-0.0113595 v 0 0 l 0.00703,-0.0116774 v 0 l 0.00845,-0.0140493 1e-7,-2.6e-7 0.00889,-0.0138188 10e-8,-1.7e-7 0.00876,-0.0130081 0.00804,-0.0119475 6e-7,-7.9e-7 7e-7,-7.4e-7 7e-7,-6.6e-7 8e-7,-5.8e-7 9e-7,-5e-7 9e-7,-4.2e-7 9e-7,-3.3e-7 0.022103,-0.00639 1e-6,-2.3e-7 1e-6,-1.3e-7 0.022097,-0.001754 1.1e-6,-3e-8 0.021981,6.6021e-4 8e-7,5e-8 0.022088,0.002379 7e-7,9e-8 0.021622,0.003845 6e-7,1.2e-7 0.020106,0.004761 6e-7,1.7e-7 0.016011,0.00491 2e-7,9e-8 0.013884,0.004657 4e-7,1.6e-7 0.012523,0.004843 v 10e-9 l 0.011514,0.004493 6e-7,2.7e-7 0.00982,0.004626 0.00992,0.004675 v 0 0 l 0.010028,0.004724 2e-7,8e-8 -10e-8,-1.7e-7 -0.007,-0.008754 v 0 l -0.00715,-0.008946 -1e-7,-3e-8 -2e-7,-2.8e-7 -1e-7,-5e-8 -0.00782,-0.008675 -1e-7,-1.1e-7 -2e-7,-1.5e-7 -10e-8,-9e-8 -0.00903,-0.008579 -0.01096,-0.009847 -1e-7,-6e-8 v -6e-8 l -3e-7,-1.9e-7 -0.013145,-0.009856 v -1e-8 l -3e-7,-2.5e-7 -1e-7,-3e-8 -0.01559,-0.0103861 -10e-8,-3e-8 -3e-7,-1.6e-7 -1e-7,-7e-8 -0.019819,-0.0114224 -1e-7,-5e-8 -2e-7,-1e-7 -1e-7,-7e-8 -0.022799,-0.0109579 -10e-8,-4e-8 -2e-7,-1.1e-7 -10e-8,-4e-8 -0.02451,-0.009716 v -3e-8 l -3e-7,-1.1e-7 -1e-7,-3e-8 -0.025859,-0.008362 -9e-7,-3.4e-7 -9e-7,-4.3e-7 -7e-7,-5.1e-7 -8e-7,-5.8e-7 -7e-7,-6.5e-7 -6e-7,-7.2e-7 -6e-7,-7.7e-7 -5e-7,-8.2e-7 -4e-7,-8.8e-7 -4e-7,-9.1e-7 -2e-7,-9.3e-7 -1e-7,-9.5e-7 -10e-8,-9.6e-7 10e-8,-9.6e-7 1e-7,-9.5e-7 2e-7,-9.4e-7 3e-7,-9.1e-7 4e-7,-8.8e-7 5e-7,-8.3e-7 6e-7,-7.8e-7 0.01434,-0.0182158 v 0 l 0.014645,-0.0186046 0.013775,-0.0174973 5e-7,-6.1e-7 0.014855,-0.0160793 7e-7,-6.9e-7 7e-7,-6.1e-7 9e-7,-5.2e-7 8e-7,-4.6e-7 9e-7,-3.7e-7 1e-6,-2.7e-7 0.021847,-0.005365 9e-7,-1.7e-7 9e-7,-9e-8 0.022466,-0.001396 10e-7,-2e-8 0.022409,8.9061e-4 8e-7,6e-8 0.022112,0.00261 7e-7,1e-7 0.021275,0.004 5e-7,1.1e-7 0.01945,0.004777 6e-7,1.5e-7 0.01559,0.004781 4e-7,1.2e-7 0.013533,0.004661 4e-7,1.2e-7 0.012215,0.004724 1e-7,2e-8 0.011173,0.004424 6e-7,2.5e-7 0.0097,0.004571 0.00958,0.004509 v 0 l 0.00974,0.004589 2e-7,7e-8 -2e-7,-1.6e-7 -0.0068,-0.008501 v 0 0 l -0.00682,-0.00853 v 0 l -3e-7,-3.7e-7 v 0 l -0.00769,-0.008718 -2e-7,-1.5e-7 -1e-7,-8e-8 -10e-8,-1.2e-7 -0.00869,-0.008264 -10e-8,-5e-8 -0.010546,-0.009736 v 0 l -3e-7,-2.8e-7 -0.012864,-0.009646 -3e-7,-2.5e-7 -0.015014,-0.0102799 -10e-8,-5e-8 -2e-7,-1.8e-7 -10e-8,-3e-8 -0.018984,-0.0112525 -2e-7,-6e-8 -2e-7,-1.1e-7 -1e-7,-6e-8 -0.02224,-0.010989 -1e-7,-4e-8 -3e-7,-1.2e-7 -10e-8,-5e-8 -0.023813,-0.009707 v -2e-8 l -4e-7,-1.4e-7 v -2e-8 l -0.024314,-0.008171 -9e-7,-3.6e-7 -9e-7,-4.5e-7 -8e-7,-5.4e-7 -8e-7,-6.3e-7 -7e-7,-7e-7 -7e-7,-7.6e-7 -5e-7,-8.2e-7 -5e-7,-8.8e-7 -4e-7,-9.2e-7 -3e-7,-9.5e-7 -10e-8,-9.7e-7 -2e-7,-10e-7 v -1e-6 l 1e-7,-9.8e-7 2e-7,-9.8e-7 3e-7,-9.6e-7 4e-7,-9.2e-7 5e-7,-8.8e-7 6e-7,-8.2e-7 6e-7,-7.6e-7 0.016498,-0.0177636 0.015043,-0.0161966 3e-7,-3.5e-7 0.014931,-0.0145821 1e-6,-8.2e-7 0.014559,-0.0109728 8e-7,-5.5e-7 9e-7,-4.7e-7 9e-7,-3.8e-7 9e-7,-2.9e-7 0.017425,-0.004521 8e-7,-1.9e-7 9e-7,-1e-7 0.019078,-0.001554 9e-7,-3e-8 0.019792,2.2824e-4 7e-7,4e-8 0.020579,0.001836 6e-7,8e-8 0.020984,0.003282 7e-7,1.4e-7 0.019574,0.004495 5e-7,1.2e-7 0.016909,0.004788 2e-7,7e-8 0.014491,0.004444 7e-7,2.2e-7 0.011946,0.004582 v 10e-9 l 0.011058,0.004277 3e-7,1.1e-7 0.00993,0.004171 4e-7,1.7e-7 0.00892,0.004202 0.00867,0.004084 v 0 l 0.00873,0.004111 2e-7,7e-8 -10e-8,-1.6e-7 -0.00609,-0.007612 v 0 l -0.00614,-0.007679 v -5e-8 l -0.00672,-0.008208 v -10e-9 l -2e-7,-2.1e-7 v -10e-9 l -0.00799,-0.0076 v 0 0 l -0.00918,-0.008731 -2e-7,-1.3e-7 -10e-8,-1e-7 -1e-7,-1e-7 -0.011335,-0.009098 -2e-7,-1.1e-7 -0.013128,-0.009844 -3e-7,-2e-7 -10e-8,-3e-8 -1e-7,-5e-8 -0.016491,-0.0101409 v -10e-9 l -4e-7,-2e-7 v -3e-8 l -0.02051,-0.0110741 -10e-8,-5e-8 -3e-7,-1.3e-7 -1e-7,-4e-8 -0.023302,-0.0105686 -1e-7,-4e-8 -3e-7,-1.2e-7 -10e-8,-3e-8 -0.026621,-0.009932 -1e-6,-4e-7 -8e-7,-4.8e-7 -9e-7,-5.7e-7 -7e-7,-6.4e-7 -7e-7,-7.2e-7 -7e-7,-7.8e-7 -5e-7,-8.5e-7 -5e-7,-8.9e-7 -2e-7,-9.3e-7 -3e-7,-9.6e-7 -2e-7,-9.8e-7 -1e-7,-1e-6 v -9.9e-7 l 2e-7,-9.9e-7 2e-7,-9.7e-7 3e-7,-9.4e-7 5e-7,-9.1e-7 5e-7,-8.6e-7 6e-7,-8.1e-7 6e-7,-7.4e-7 0.015393,-0.0155503 0.011171,-0.0112848 0.00896,-0.009057 8e-7,-6.9e-7 0.00878,-0.007201 3e-7,-2.8e-7 0.00865,-0.00647 v 0 l 0.00826,-0.006174 0.00709,-0.005297 v 0 l 0.00676,-0.005053 v 0 l 0.00651,-0.004866 0.00649,-0.004852 2e-7,-1.4e-7 h -2e-7 l -0.00962,3.8635e-4 v 0 l -0.0078,3.1331e-4 -0.00881,3.5352e-4 v 0 0 l -0.00929,3.7279e-4 v 0 0 l -0.00929,3.729e-4 h -10e-8 l -0.010641,5.0828e-4 v 0 l -0.011922,6.3588e-4 v 0 l -0.013317,7.1059e-4 -0.015358,8.1968e-4 h -10e-8 l -0.018353,0.001235 v 0 l -0.021755,0.001537 -1e-7,10e-9 -0.023742,0.001891 v 10e-9 l -0.02498,0.002314 -1e-7,10e-9 -0.025479,0.002634 -1e-7,10e-9 -0.02517,0.003028 -1e-7,10e-9 -0.024794,0.003353 -10e-8,2e-8 -0.024534,0.003805 v 0 l -0.024404,0.004318 -0.024484,0.004883 -3e-7,6e-8 -0.024972,0.005911 -0.026727,0.006915 -1e-7,3e-8 -2e-7,9e-8 -1e-7,2e-8 -0.029031,0.009676 v 3e-8 l -3e-7,10e-8 -1e-7,3e-8 -0.033159,0.0136152 -3e-7,1.5e-7 v 10e-9 l -0.035491,0.0195277 -1e-7,6e-8 -10e-8,8e-8 -10e-8,3e-8 -1e-7,1e-7 -0.027903,0.0225176 -2e-7,1.6e-7 2e-7,4e-8 0.026117,0.004738 8e-7,1.8e-7 8e-7,2.5e-7 0.028501,0.0102978 8e-7,3.6e-7 9e-7,4.6e-7 8e-7,5.2e-7 0.025678,0.0188026 7e-7,6e-7 7e-7,6.6e-7 6e-7,7.3e-7 6e-7,7.7e-7 0.014911,0.0238287 5e-7,1.01e-6 5e-7,1.06e-6 3e-7,1.1e-6 0.00512,0.0233721 v 8.3e-7 l 1e-7,8.3e-7 v 8.4e-7 l -6.821e-4,0.0190812 -10e-8,1.21e-6 -2e-7,1.18e-6 -0.00465,0.016297 -2e-7,7.6e-7 -3e-7,7.4e-7 -0.00697,0.0148421 -5e-7,1.01e-6 -7e-7,9.4e-7 -0.010778,0.0136343 -8e-7,9.8e-7 -0.01319,0.0127815 -8e-7,7.6e-7 -0.016161,0.0123689 -6e-7,4.6e-7 -7e-7,4.1e-7 -0.016875,0.009072 -7e-7,3.3e-7 -7e-7,2.8e-7 -0.015256,0.005444 -7e-7,2.1e-7 -0.014607,0.004074 -9e-7,2e-7 -9e-7,1.2e-7 -9e-7,4e-8 -0.015629,6.702e-5 -8e-7,-3e-8 -0.015353,-0.001195 -8e-7,-9e-8 -8e-7,-1.7e-7 -0.014537,-0.003617 -8e-7,-2.4e-7 -7e-7,-3.1e-7 -0.014012,-0.006176 -7e-7,-3.3e-7 -0.013899,-0.007461 -8e-7,-4.6e-7 -7e-7,-5.2e-7 -0.01368,-0.0108796 -8e-7,-6.8e-7 -7e-7,-7.4e-7 -0.012957,-0.0155016 -6e-7,-7.9e-7 -6e-7,-8.6e-7 -0.00927,-0.0170837 -5e-7,-1.05e-6 -4e-7,-1.09e-6 -0.00613,-0.0223942 -2e-7,-8.3e-7 -2e-7,-8.5e-7 v -8.5e-7 l -2.502e-4,-0.0241898 v -9.8e-7 l 1e-7,-9.7e-7 2e-7,-9.5e-7 4e-7,-9.1e-7 0.00784,-0.0196276 5e-7,-1.12e-6 0.010189,-0.0185089 7e-7,-1.13e-6 0.012668,-0.0171103 7e-7,-7.8e-7 0.014098,-0.0154921 4e-7,-3.6e-7 0.015105,-0.0150003 5e-7,-4.8e-7 0.016443,-0.0141484 2e-7,-1.9e-7 0.017116,-0.0138905 5e-7,-3.8e-7 0.018209,-0.0129435 2e-7,-1.6e-7 0.018643,-0.0124887 6e-7,-4e-7 0.019693,-0.0111549 1.1e-6,-5.5e-7 0.021389,-0.008793 3e-7,-1.4e-7 0.021838,-0.008067 5e-7,-1.8e-7 0.022558,-0.006975 3e-7,-9e-8 0.022825,-0.006238 3e-7,-7e-8 0.022503,-0.005413 3e-7,-7e-8 0.021745,-0.004549 3e-7,-6e-8 0.020053,-0.003562 4e-7,-6e-8 0.016661,-0.002266 3e-7,-4e-8 0.015542,-0.001509 5e-7,-3e-8 0.013707,-5.9655e-4 h 2e-7 l 0.012553,-3.0222e-4 h 4e-7 l 0.011618,2.1465e-4 v 0 l 0.011568,2.1333e-4 0.011259,2.0802e-4 2e-7,-10e-9 -2e-7,-3e-8 -0.011158,-0.001754 v 0 0 l -0.011598,-0.001823 -0.011362,-0.001786 -0.01272,-0.001728 v -10e-9 l -0.013665,-0.001763 v -10e-9 l -0.015038,-0.00179 h -1e-7 l -0.017511,-0.001939 v 0 l -5e-7,-4e-8 v -10e-9 l -0.021342,-0.001181 h -1e-7 l -0.023256,-8.5462e-4 v 10e-9 h -4e-7 v 0 l -0.024782,5.1984e-4 h -2e-7 l -0.024774,0.001356 v 1e-8 l -0.02534,0.001433 -3e-7,4e-8 v 0 l -0.02552,0.004414 v 0 0 l -0.025399,0.004393 -1e-7,4e-8 -2e-7,3e-8 -2e-7,4e-8 -0.025442,0.006631 -4e-7,1.1e-7 -0.025047,0.007639 -10e-8,2e-8 -3e-7,1.1e-7 -1e-7,3e-8 -0.025197,0.009516 -10e-8,4e-8 -3e-7,1.4e-7 -10e-8,2e-8 -0.024761,0.0112246 -1e-7,4e-8 -3e-7,1.5e-7 -10e-8,3e-8 -0.024688,0.0131801 -10e-8,4e-8 -2e-7,1.7e-7 -10e-8,3e-8 -0.023629,0.0146739 -10e-8,1e-7 -2e-7,1.2e-7 -10e-8,6e-8 -0.023303,0.0170475 v 10e-9 l -3e-7,2.8e-7 v 0 l -0.022922,0.0186125 -10e-8,1.1e-7 v 1e-8 l -2e-7,2e-7 -0.021571,0.0212613 -2e-7,2.6e-7 -0.021661,0.0231427 -1e-7,9e-8 -10e-8,1.3e-7 v 7e-8 l -0.019529,0.0278289 -0.02096,0.029866 -0.022545,0.0338494 -10e-8,2.7e-7 -1e-7,8e-8 -0.022043,0.0426567 -5e-7,8.6e-7 -6e-7,8e-7 -6e-7,7.5e-7 -8e-7,6.8e-7 -7e-7,6e-7 -9e-7,5.2e-7 -9e-7,4.2e-7 -9e-7,3.4e-7 -1e-6,2.5e-7 -1e-6,1.4e-7 -0.017857,0.001699 -0.0226,0.00215 v 0 0 l -0.025335,0.00241 v 0 0 l -0.027595,0.002626 v 0 l -0.028991,0.002758 -6e-7,4e-8 -0.029244,0.00105 v 0 l -0.029102,9.1363e-4 -0.028127,8.8276e-4 v 0 0 l -0.02664,8.3629e-4 v 0 l -0.025609,7.7521e-4 h -5e-7 l -0.024602,-4.195e-4 -0.024399,-4.1611e-4 v 0 L 3.2877333,0.4334451 v 0 l -0.024168,-4.1181e-4 -0.024077,-4.107e-4 v 0 l -0.023936,-4.665e-4 -4e-7,-2e-8 -0.024075,-0.001339 -0.024266,-0.00135 v 0 l -0.024366,-0.001356 -0.024469,-0.001362 -0.024529,-0.001364 -0.024532,-0.001365 -3e-7,-2e-8 -0.024663,-0.002095 v -1e-8 l -0.025143,-0.002207 v 0 l -0.025659,-0.002253 -0.026446,-0.002322 -0.027369,-0.002403 v 0 l -0.028501,-0.002598 -3e-7,-3e-8 -0.0297,-0.003438 -0.030588,-0.003541 v 0 0 l -0.030935,-0.003581 -0.030644,-0.003548 h -10e-8 l -0.030117,-0.003591 -2e-7,-2e-8 -0.029669,-0.004192 -0.029464,-0.004163 v 0 l -0.029381,-0.004151 v 0 0 l -0.029369,-0.00415 h -10e-8 l -0.029411,-0.004253 -2e-7,-3e-8 -0.029455,-0.004885 v 0 l -0.029575,-0.004905 -0.029741,-0.004932 v 0 l -0.030197,-0.005007 -1e-7,-3e-8 -0.031282,-0.005537 -1e-7,-3e-8 -0.03336,-0.006372 -0.036436,-0.006959 v 0 l -0.0407,-0.007773 -3e-7,-4e-8 -0.046215,-0.009957 -10e-8,-10e-9 -0.051451,-0.0112648 -10e-8,-4e-8 -0.050247,-0.0118725 -2e-7,-4e-8 -0.04412,-0.0111798 -10e-8,-10e-9 -0.034525,-0.008918 -4e-7,-1.1e-7 -0.022762,-0.00688 v 0 l -0.016214,-0.0049 v 0 0 l -0.013888,-0.004198 -0.012245,-0.003702 -3e-7,-9e-8 -0.012004,-0.003114 z M 3.4955163,1.170265 v 0 l 3.162e-4,-0.010962 v 0 L 3.496248,1.144888 3.4967306,1.128156 v 0 L 3.4972662,1.10958 3.4978407,1.089658 v -3e-7 l 0.00127,-0.021348 v -10e-8 l 0.00161,-0.023209 0.00167,-0.024018 v -3e-7 l 0.00238,-0.024071 1e-7,-1e-7 0.00268,-0.0241511 0.00267,-0.0240527 v -2e-7 l 0.00313,-0.023854 v -1.7e-7 l 0.00356,-0.0238967 v 0 l 0.00356,-0.0238636 v -1.8e-7 l 0.00398,-0.0236979 v -1.5e-7 l 0.00436,-0.0237517 0.00435,-0.0236953 1e-7,-2.2e-7 0.0049,-0.0235405 v -6e-8 l 0.00507,-0.0235852 v -7e-8 l 0.00522,-0.023401 v -1.8e-7 l 0.00566,-0.0232998 10e-8,-10e-9 0.00566,-0.0231615 10e-8,-2.1e-7 0.0061,-0.0228721 v -2e-8 l 0.00608,-0.0226701 v -10e-8 l 0.00619,-0.0221767 0.00609,-0.0218044 v 0 l 0.00592,-0.0212158 v 0 l 0.00557,-0.019953 3e-7,-9.6e-7 4e-7,-9e-7 6e-7,-8.7e-7 6e-7,-8.1e-7 6e-7,-7.5e-7 7e-7,-6.8e-7 8e-7,-6.1e-7 9e-7,-5.1e-7 9e-7,-4.4e-7 9e-7,-3.4e-7 10e-7,-2.4e-7 9e-7,-1.6e-7 10e-7,-5e-8 0.017279,-3.145e-5 0.021622,-2.478e-5 0.025096,-2.602e-5 v 0 l 0.029409,-1.0787e-4 v 0 l 0.034764,-5.7861e-4 10e-7,3e-8 1e-6,1.3e-7 1e-6,2.2e-7 9e-7,3.1e-7 9e-7,4e-7 8e-7,4.9e-7 8e-7,5.7e-7 8e-7,6.5e-7 6e-7,7.2e-7 6e-7,7.6e-7 5e-7,8.4e-7 5e-7,8.8e-7 3e-7,9.1e-7 3e-7,9.5e-7 2e-7,9.7e-7 v 9.7e-7 l -10e-8,9.8e-7 -1e-7,9.7e-7 -2e-7,9.6e-7 -3e-7,9.3e-7 -0.015271,0.0390729 v 0 0 l -0.012018,0.0307515 -0.010822,0.0276251 v 3e-8 l -0.010391,0.0262775 v 0 l -0.010143,0.0256659 v 0 l -0.00991,0.0251226 v 10e-9 l -0.00974,0.0247405 v 2e-8 l -0.00965,0.0246472 v 1e-8 l -0.00966,0.0247682 v 3e-8 l -0.00966,0.0250303 -0.00973,0.0252846 v 5e-8 l -0.00963,0.0254679 v 10e-9 l -0.00961,0.025432 -1e-7,5e-8 -0.00939,0.025528 -0.00947,0.0257342 -1e-7,6e-8 -0.00936,0.0262462 v 10e-9 l -0.00955,0.0268461 v 0 l -0.00955,0.027876 v 0 l -0.00975,0.028599 v 1e-7 l -0.00922,0.028399 v 0 l -0.008,0.024723 v 1e-7 l -0.00621,0.020213 v 0 l -0.00555,0.018288 v 0 0 0 l -0.00618,0.020358 -3e-7,9e-7 -4e-7,9e-7 -5e-7,9e-7 -6e-7,8e-7 -7e-7,7e-7 -8e-7,7e-7 -8e-7,6e-7 -8e-7,5e-7 -9e-7,3e-7 -10e-7,4e-7 -9e-7,2e-7 -10e-7,2e-7 h -1e-6 -1e-6 l -10e-7,-2e-7 -9e-7,-3e-7 -10e-7,-3e-7 -9e-7,-5e-7 -8e-7,-5e-7 -8e-7,-6e-7 -6e-7,-7e-7 -7e-7,-7e-7 -6e-7,-8e-7 -5e-7,-8e-7 -4e-7,-9e-7 -3e-7,-1.1e-6 -2e-7,-9e-7 -2e-7,-10e-7 1e-7,-1e-6 z M 3.3639052,2.5569335 v -10e-8 l -0.0025,-0.017371 v -10e-8 l -0.00258,-0.019189 v 0 l -0.00272,-0.020933 -10e-8,-3e-7 -0.00219,-0.023 10e-8,-2e-7 -0.00192,-0.023851 v -4e-7 l -0.00104,-0.024028 v -2e-7 l -5.031e-4,-0.023722 v -3e-7 l 3.769e-4,-0.023549 v -10e-8 l 7.201e-4,-0.023359 v -5e-7 l 0.00191,-0.023316 0.0019,-0.023253 1e-7,-5e-7 0.00318,-0.022993 v -2e-7 l 0.00352,-0.023214 v -10e-8 l 0.00371,-0.022983 1e-7,-6e-7 0.00511,-0.022837 v 0 0 l 0.00515,-0.023052 1e-7,-10e-8 0.00541,-0.022798 2e-7,-5e-7 0.00674,-0.022644 0.00682,-0.022936 v 0 0 l 0.0068,-0.022869 2e-7,-6e-7 0.0083,-0.022475 v 0 l 0.00839,-0.022513 0.00807,-0.02168 10e-8,-2e-7 0.00842,-0.021166 2e-7,-4e-7 0.0082,-0.018333 v 0 l 0.00798,-0.017847 0.00681,-0.01522 v 0 l 0.00613,-0.013706 v 0 l 0.00613,-0.013703 4e-7,-8e-7 5e-7,-9e-7 7e-7,-8e-7 7e-7,-7e-7 7e-7,-6e-7 8e-7,-6e-7 9e-7,-5e-7 9e-7,-4e-7 9e-7,-2e-7 9e-7,-2e-7 10e-7,-2e-7 h 1e-6 1e-6 l 9e-7,2e-7 1e-6,3e-7 9e-7,4e-7 9e-7,4e-7 8e-7,6e-7 8e-7,6e-7 7e-7,6e-7 7e-7,8e-7 5e-7,8e-7 4e-7,8e-7 5e-7,9e-7 3e-7,9e-7 2e-7,10e-7 10e-8,1e-6 0.00134,0.019623 0.00129,0.018873 v 0 0 l 0.00148,0.021804 v 0 l 0.00194,0.028407 -1e-7,5e-7 7.797e-4,0.032482 v 3e-7 l -1.917e-4,0.032879 -1.931e-4,0.033088 -1.932e-4,0.033114 v 0 0 l -1.882e-4,0.032271 v 3e-7 l -0.00102,0.030314 v 6e-7 l -0.0026,0.0283 v 0 0 l -0.00248,0.027027 -10e-8,4e-7 -0.00377,0.026675 v 10e-8 l -0.00418,0.027087 v 3e-7 l -0.00495,0.026535 v 4e-7 l -0.00572,0.025852 -10e-8,2e-7 -0.00614,0.024669 -1e-7,4e-7 -0.00705,0.024131 -10e-8,3e-7 -0.00783,0.023918 -10e-8,3e-7 -0.00878,0.024024 -10e-8,5e-7 -0.010355,0.024359 -10e-8,3e-7 -0.010575,0.022776 -1e-7,3e-7 -0.010788,0.021261 -2e-7,2e-7 -0.010819,0.019776 h -10e-8 l -0.011361,0.020445 -5e-7,9e-7 -6e-7,7e-7 -6e-7,6e-7 -7e-7,7e-7 -8e-7,6e-7 -8e-7,5e-7 -9e-7,4e-7 -9e-7,3e-7 -9e-7,3e-7 -1e-6,1e-7 h -9e-7 -1e-6 l -10e-7,-2e-7 -9e-7,-2e-7 -9e-7,-3e-7 -9e-7,-4e-7 -8e-7,-5e-7 -8e-7,-5e-7 -8e-7,-7e-7 -6e-7,-7e-7 -6e-7,-8e-7 -6e-7,-8e-7 -4e-7,-9e-7 -2e-7,-9e-7 -3e-7,-9e-7 -2e-7,-9e-7 -0.00192,-0.015653 v -1e-7 z"
       id="path4"
       style="fill:#ffffff;stroke:#000000;stroke-opacity:1;stroke-width:0.01051655;stroke-dasharray:none;stroke-linejoin:round" /><path
       fill-rule="evenodd"
       fill="#000000"
       stroke="#555555"
       stroke-width="0"
       opacity="1"
       d="M 2.1807203,0.9155845 Z"
       id="path6"
       style="fill:#ffffff;stroke:#000000;stroke-opacity:1;stroke-width:0.01051655;stroke-dasharray:none;stroke-linejoin:round" /><path
       fill-rule="evenodd"
       fill="#000000"
       stroke="#555555"
       stroke-width="0"
       opacity="1"
       d="M 2.1651897,1.1801395 Z"
       id="path8"
       style="fill:#ffffff;stroke:#000000;stroke-opacity:1;stroke-width:0.01051655;stroke-dasharray:none;stroke-linejoin:round" /><path
       fill-rule="evenodd"
       fill="#000000"
       stroke="#555555"
       stroke-width="0"
       opacity="1"
       d="M 2.5360522,0.90954888 Z"
       id="path10"
       style="fill:#ffffff;stroke:#000000;stroke-opacity:1;stroke-width:0.01051655;stroke-dasharray:none;stroke-linejoin:round" /><path
       fill-rule="evenodd"
       fill="#000000"
       stroke="#555555"
       stroke-width="0"
       opacity="1"
       d="M 3.3998089,1.0871134 Z"
       id="path12"
       style="fill:#ffffff;stroke:#000000;stroke-opacity:1;stroke-width:0.01051655;stroke-dasharray:none;stroke-linejoin:round" /><path
       fill-rule="evenodd"
       fill="#000000"
       stroke="#555555"
       stroke-width="0"
       opacity="1"
       d="M 3.4010131,1.1501182 Z"
       id="path14"
       style="fill:#ffffff;stroke:#000000;stroke-opacity:1;stroke-width:0.01051655;stroke-dasharray:none;stroke-linejoin:round" /><path
       fill-rule="evenodd"
       fill="#000000"
       stroke="#555555"
       stroke-width="0"
       opacity="1"
       d="M 3.405509,1.2351952 Z"
       id="path16"
       style="fill:#ffffff;stroke:#000000;stroke-opacity:1;stroke-width:0.01051655;stroke-dasharray:none;stroke-linejoin:round" /><path
       fill-rule="evenodd"
       fill="#000000"
       stroke="#555555"
       stroke-width="0"
       opacity="1"
       d="M 3.4122982,1.3100212 Z"
       id="path18"
       style="fill:#ffffff;stroke:#000000;stroke-opacity:1;stroke-width:0.01051655;stroke-dasharray:none;stroke-linejoin:round" /><path
       fill-rule="evenodd"
       fill="#000000"
       stroke="#555555"
       stroke-width="0"
       opacity="1"
       d="M 3.4226031,1.3893404 Z"
       id="path20"
       style="fill:#ffffff;stroke:#000000;stroke-opacity:1;stroke-width:0.01051655;stroke-dasharray:none;stroke-linejoin:round" /><path
       fill-rule="evenodd"
       fill="#000000"
       stroke="#555555"
       stroke-width="0"
       opacity="1"
       d="M 3.4047143,1.653224 Z"
       id="path22"
       style="fill:#ffffff;stroke:#000000;stroke-opacity:1;stroke-width:0.01051655;stroke-dasharray:none;stroke-linejoin:round" /><path
       fill-rule="evenodd"
       fill="#000000"
       stroke="#555555"
       stroke-width="0"
       opacity="1"
       d="M 3.3520288,1.8585228 Z"
       id="path24"
       style="fill:#ffffff;stroke:#000000;stroke-opacity:1;stroke-width:0.01051655;stroke-dasharray:none;stroke-linejoin:round" /><path
       fill-rule="evenodd"
       fill="#000000"
       stroke="#555555"
       stroke-width="0"
       opacity="1"
       d="M 3.3213477,1.9585682 Z"
       id="path26"
       style="fill:#ffffff;stroke:#000000;stroke-opacity:1;stroke-width:0.01051655;stroke-dasharray:none;stroke-linejoin:round" /><path
       fill-rule="evenodd"
       fill="#000000"
       stroke="#555555"
       stroke-width="0"
       opacity="1"
       d="M 3.296833,2.0488567 Z"
       id="path28"
       style="fill:#ffffff;stroke:#000000;stroke-opacity:1;stroke-width:0.01051655;stroke-dasharray:none;stroke-linejoin:round" /><path
       fill-rule="evenodd"
       fill="#000000"
       stroke="#555555"
       stroke-width="0"
       opacity="1"
       d="M 3.2426002,2.3799348 Z"
       id="path30"
       style="fill:#ffffff;stroke:#000000;stroke-opacity:1;stroke-width:0.01051655;stroke-dasharray:none;stroke-linejoin:round" /><path
       fill-rule="evenodd"
       fill="#000000"
       stroke="#555555"
       stroke-width="0"
       opacity="1"
       d="M 3.6981497,3.033607 Z"
       id="path32"
       style="fill:#ffffff;stroke:#000000;stroke-opacity:1;stroke-width:0.01051655;stroke-dasharray:none;stroke-linejoin:round" /><path
       fill-rule="evenodd"
       fill="#000000"
       stroke="#555555"
       stroke-width="0"
       opacity="1"
       d="M 4.118186,2.6664186 Z"
       id="path34"
       style="fill:#ffffff;stroke:#000000;stroke-opacity:1;stroke-width:0.01051655;stroke-dasharray:none;stroke-linejoin:round" /><path
       fill-rule="evenodd"
       fill="#000000"
       stroke="#555555"
       stroke-width="0"
       opacity="1"
       d="M 3.9043214,1.9925698 Z"
       id="path36"
       style="fill:#ffffff;stroke:#000000;stroke-opacity:1;stroke-width:0.01051655;stroke-dasharray:none;stroke-linejoin:round" /><path
       fill-rule="evenodd"
       fill="#000000"
       stroke="#555555"
       stroke-width="0"
       opacity="1"
       d="M 3.8332233,2.2422681 Z"
       id="path38"
       style="fill:#ffffff;stroke:#000000;stroke-opacity:1;stroke-width:0.01051655;stroke-dasharray:none;stroke-linejoin:round" /><path
       fill-rule="evenodd"
       fill="#000000"
       stroke="#555555"
       stroke-width="0"
       opacity="1"
       d="M 3.7965119,2.2087216 Z"
       id="path40"
       style="fill:#ffffff;stroke:#000000;stroke-opacity:1;stroke-width:0.01051655;stroke-dasharray:none;stroke-linejoin:round" /><path
       fill-rule="evenodd"
       fill="#000000"
       stroke="#555555"
       stroke-width="0"
       opacity="1"
       d="M 3.8794639,1.716282 Z"
       id="path42"
       style="fill:#ffffff;stroke:#000000;stroke-opacity:1;stroke-width:0.01051655;stroke-dasharray:none;stroke-linejoin:round" /><path
       fill-rule="evenodd"
       fill="#000000"
       stroke="#555555"
       stroke-width="0"
       opacity="1"
       d="M 3.8426385,1.6825812 Z"
       id="path44"
       style="fill:#ffffff;stroke:#000000;stroke-opacity:1;stroke-width:0.01051655;stroke-dasharray:none;stroke-linejoin:round" /><path
       fill-rule="evenodd"
       fill="#000000"
       stroke="#555555"
       stroke-width="0"
       opacity="1"
       d="M 4.1116638,0.87361735 Z"
       id="path46"
       style="fill:#ffffff;stroke:#000000;stroke-opacity:1;stroke-width:0.01051655;stroke-dasharray:none;stroke-linejoin:round" /><path
       fill-rule="evenodd"
       fill="#000000"
       stroke="#555555"
       stroke-width="0"
       opacity="1"
       d="M 4.1520104,0.16824579 Z"
       id="path48"
       style="fill:#ffffff;stroke:#000000;stroke-opacity:1;stroke-width:0.01051655;stroke-dasharray:none;stroke-linejoin:round" /><path
       fill-rule="evenodd"
       fill="#000000"
       stroke="#555555"
       stroke-width="0"
       opacity="1"
       d="M 4.1276712,0.17291653 Z"
       id="path50"
       style="fill:#ffffff;stroke:#000000;stroke-opacity:1;stroke-width:0.01051655;stroke-dasharray:none;stroke-linejoin:round" /><path
       fill-rule="evenodd"
       fill="#000000"
       stroke="#555555"
       stroke-width="0"
       opacity="1"
       d="M 4.0783758,0.18442512 Z"
       id="path52"
       style="fill:#ffffff;stroke:#000000;stroke-opacity:1;stroke-width:0.01051655;stroke-dasharray:none;stroke-linejoin:round" /><path
       fill-rule="evenodd"
       fill="#000000"
       stroke="#555555"
       stroke-width="0"
       opacity="1"
       d="M 4.1724687,0.1321497 Z"
       id="path54"
       style="fill:#ffffff;stroke:#000000;stroke-opacity:1;stroke-width:0.01051655;stroke-dasharray:none;stroke-linejoin:round" /><path
       fill-rule="evenodd"
       fill="#000000"
       stroke="#555555"
       stroke-width="0"
       opacity="1"
       d="M 3.6674032,0.34297264 Z"
       id="path56"
       style="fill:#ffffff;stroke:#000000;stroke-opacity:1;stroke-width:0.01051655;stroke-dasharray:none;stroke-linejoin:round" /><path
       fill-rule="evenodd"
       fill="#000000"
       stroke="#555555"
       stroke-width="0"
       opacity="1"
       d="M 3.6243742,0.83285099 Z"
       id="path58"
       style="fill:#ffffff;stroke:#000000;stroke-opacity:1;stroke-width:0.01051655;stroke-dasharray:none;stroke-linejoin:round" /></g></svg>
