<?xml version="1.0" encoding="UTF-8" standalone="no"?>
<!-- Created with Inkscape (http://www.inkscape.org/) -->

<svg
   width="1068.374"
   height="153.09375"
   viewBox="0 0 282.67397 40.506056"
   version="1.1"
   id="svg8"
   inkscape:version="1.4 (e7c3feb100, 2024-10-09)"
   sodipodi:docname="TMWrath_Light.svg"
   xmlns:inkscape="http://www.inkscape.org/namespaces/inkscape"
   xmlns:sodipodi="http://sodipodi.sourceforge.net/DTD/sodipodi-0.dtd"
   xmlns="http://www.w3.org/2000/svg"
   xmlns:svg="http://www.w3.org/2000/svg"
   xmlns:rdf="http://www.w3.org/1999/02/22-rdf-syntax-ns#"
   xmlns:cc="http://creativecommons.org/ns#"
   xmlns:dc="http://purl.org/dc/elements/1.1/">
  <defs
     id="defs2" />
  <sodipodi:namedview
     id="base"
     pagecolor="#ffffff"
     bordercolor="#666666"
     borderopacity="1.0"
     inkscape:pageopacity="0.0"
     inkscape:pageshadow="2"
     inkscape:zoom="0.35"
     inkscape:cx="-322.85714"
     inkscape:cy="-390"
     inkscape:document-units="mm"
     inkscape:current-layer="layer1"
     showgrid="false"
     inkscape:pagecheckerboard="true"
     showborder="false"
     units="px"
     inkscape:window-width="1440"
     inkscape:window-height="888"
     inkscape:window-x="0"
     inkscape:window-y="0"
     inkscape:window-maximized="1"
     fit-margin-top="0"
     fit-margin-left="0"
     fit-margin-right="0"
     fit-margin-bottom="0"
     inkscape:showpageshadow="2"
     inkscape:deskcolor="#d1d1d1" />
  <metadata
     id="metadata5">
    <rdf:RDF>
      <cc:Work
         rdf:about="">
        <dc:format>image/svg+xml</dc:format>
        <dc:type
           rdf:resource="http://purl.org/dc/dcmitype/StillImage" />
      </cc:Work>
    </rdf:RDF>
  </metadata>
  <g
     inkscape:label="Layer 1"
     inkscape:groupmode="layer"
     id="layer1"
     transform="translate(170.42567,-65.746992)">
    <g
       aria-label="T.M. Wrath"
       style="font-style:normal;font-variant:normal;font-weight:normal;font-stretch:normal;font-size:50.79999924px;line-height:1.25;font-family:'Typography Times';-inkscape-font-specification:'Typography Times, Normal';font-variant-ligatures:normal;font-variant-caps:normal;font-variant-numeric:normal;font-feature-settings:normal;text-align:start;letter-spacing:0px;word-spacing:0px;writing-mode:lr-tb;text-anchor:start;fill:#000000;fill-opacity:1;stroke:none;stroke-width:0.26458332"
       id="text814">
      <path
         d="m -154.05483,74.304609 q 0,-2.6417 -1.02939,-3.522266 -1.01699,-0.892969 -3.28662,-0.892969 -1.21543,0.08682 -3.11299,0.868164 -1.89756,0.768946 -3.83232,2.331641 -1.93477,1.550293 -3.21221,3.807519 -1.079,1.376661 -1.68672,1.575098 -0.50849,0 0.21084,-1.277441 l 3.11299,-8.383985 q 1.37666,-0.272851 6.48643,-0.248046 h 18.69033 q 1.0914,0 6.05234,0 l 3.7207,9.413378 q -1.33945,-0.248047 -1.73632,-1.178222 -0.88057,-1.835547 -2.67891,-3.398242 -1.78594,-1.575098 -3.99356,-2.492872 -2.20761,-0.917773 -4.254,-0.917773 -2.20762,0 -2.88975,1.438672 -0.66972,1.426269 -0.66972,4.700488 v 18.144629 q 0,3.584277 0.26045,5.407422 0.27285,1.823146 1.46347,2.914546 1.19063,1.07901 3.81993,1.07901 0.78134,0.17363 1.24023,0.11162 1.36426,0.5085 1.38906,1.10381 0,0.23564 -22.12578,0 0.16123,-0.76895 1.35186,-1.37666 1.27744,0 1.98437,0.0992 1.53789,-0.062 2.53008,-0.65733 0.99219,-0.59531 1.5875,-2.46806 0.60771,-1.872758 0.60771,-5.506645 z"
         style="font-style:normal;font-variant:normal;font-weight:normal;font-stretch:normal;font-size:50.79999924px;font-family:'Typography Times';-inkscape-font-specification:'Typography Times, Normal';font-variant-ligatures:normal;font-variant-caps:normal;font-variant-numeric:normal;font-feature-settings:normal;text-align:start;writing-mode:lr-tb;text-anchor:start;fill:#000000;stroke-width:0.26458332;fill-opacity:1"
         id="path814"
         inkscape:connector-curvature="0" />
      <path
         d="m -126.76967,99.34494 q 1.50068,0 2.24482,0.93018 0.74415,0.91777 0.74415,2.158 0,1.30225 -0.93018,2.35645 -0.91777,1.0542 -1.84795,1.11621 -1.56269,0 -2.29443,-1.01699 -0.71934,-1.01699 -0.71934,-2.34405 0,-1.31464 0.84336,-2.19521 0.84336,-0.880566 1.95957,-1.00459 z"
         style="font-style:normal;font-variant:normal;font-weight:normal;font-stretch:normal;font-size:50.79999924px;font-family:'Typography Times';-inkscape-font-specification:'Typography Times, Normal';font-variant-ligatures:normal;font-variant-caps:normal;font-variant-numeric:normal;font-feature-settings:normal;text-align:start;writing-mode:lr-tb;text-anchor:start;fill:#000000;stroke-width:0.26458332;fill-opacity:1"
         id="path816"
         inkscape:connector-curvature="0" />
      <path
         d="M -110.16293,71.563691 V 96.75285 q -0.28526,7.08174 5.65547,7.08174 1.36426,0.76894 1.64951,1.21543 0,0.24805 -16.02383,-0.062 0.32246,-0.60772 1.27744,-1.21543 3.12539,0 4.56407,-2.81534 1.45107,-2.815327 1.45107,-8.470796 V 76.127753 q 0,-2.988965 -0.91777,-4.328418 -0.91778,-1.339453 -1.93477,-1.79834 -1.00459,-0.458886 -3.1626,-0.483691 -1.20302,-0.880566 -1.43867,-1.029395 7.19336,0.173633 12.53877,0.07442 0.81855,0 1.079,0.16123 0.27286,0.16123 0.62012,1.153418 0.35967,0.979785 0.48369,1.277441 l 9.041311,20.935156 10.10791,-21.642089 q 0.607715,-1.339453 0.868164,-1.612305 0.260449,-0.272851 1.21543,-0.272851 l 11.980664,-0.136426 q -0.334864,-0.186035 -2.790528,0.930176 -2.443261,1.103808 -3.162597,1.872753 -0.706934,0.768946 -1.029395,2.331641 -0.322461,1.550293 -0.322461,4.254004 v 17.62373 q 0.26045,3.472656 0.434082,5.060163 0.173633,1.5875 1.612305,2.30683 1.438672,0.71934 3.187402,1.26504 1.748731,0.54571 1.513086,0.91778 l -20.339843,-0.062 q 0.347265,-0.48369 1.575097,-1.02939 2.244825,-0.0744 3.150196,-0.32246 0.905371,-0.26045 1.649511,-0.97979 0.744141,-0.73173 1.103809,-2.41845 0.37207,-1.686726 0.37207,-4.737703 V 71.055195 q -12.526367,27.433984 -14.07666,30.212105 0.272852,0.18604 -0.322461,-1.28984 -0.58291,-1.488281 -0.694531,-1.748731 z"
         style="font-style:normal;font-variant:normal;font-weight:normal;font-stretch:normal;font-size:50.79999924px;font-family:'Typography Times';-inkscape-font-specification:'Typography Times, Normal';font-variant-ligatures:normal;font-variant-caps:normal;font-variant-numeric:normal;font-feature-settings:normal;text-align:start;writing-mode:lr-tb;text-anchor:start;fill:#000000;stroke-width:0.26458332;fill-opacity:1"
         id="path818"
         inkscape:connector-curvature="0" />
      <path
         d="m -63.468106,99.34494 q 1.500683,0 2.244824,0.93018 0.744141,0.91777 0.744141,2.158 0,1.30225 -0.930176,2.35645 -0.917774,1.0542 -1.847949,1.11621 -1.562696,0 -2.294434,-1.01699 -0.719336,-1.01699 -0.719336,-2.34405 0,-1.31464 0.84336,-2.19521 0.843359,-0.880566 1.95957,-1.00459 z"
         style="font-style:normal;font-variant:normal;font-weight:normal;font-stretch:normal;font-size:50.79999924px;font-family:'Typography Times';-inkscape-font-specification:'Typography Times, Normal';font-variant-ligatures:normal;font-variant-caps:normal;font-variant-numeric:normal;font-feature-settings:normal;text-align:start;writing-mode:lr-tb;text-anchor:start;fill:#000000;stroke-width:0.26458332;fill-opacity:1"
         id="path820"
         inkscape:connector-curvature="0" />
      <path
         d="m -34.992325,75.631659 q -0.843359,-3.075781 -2.220019,-4.564062 -1.376661,-1.488281 -2.864942,-1.488281 -0.297656,0 -0.768945,-0.434082 -0.483691,-0.434082 -0.483691,-0.657325 1.227832,0.09922 16.19746,0.06201 -0.248047,0.496094 -1.475879,1.277442 -2.778125,0.508496 -2.691308,3.509863 0.07441,0.595312 0.508496,2.492871 l 6.13916,22.299414 5.543848,-20.42666 q -0.570508,-1.748731 -1.066602,-3.199805 -0.483691,-1.451074 -1.029395,-2.443262 -0.5333,-0.992187 -1.302246,-1.699121 -0.768945,-0.719336 -2.021582,-0.719336 -0.545703,-0.781347 -0.818554,-1.153418 2.282031,0.03721 15.3789057,0.07442 0.3472656,0 1.153418,-0.0124 -0.2604492,0.42168 -1.5130859,1.153418 -1.8231448,0 -2.6789058,0.892969 -0.84336,0.892969 -0.917774,2.840137 0.235645,1.947168 0.458887,2.902148 l 6.3499997,21.790918 4.87412106,-18.640723 q 0.70693358,-2.616894 0.70693358,-4.675683 0,-3.112989 -1.36425779,-4.105176 -1.35185545,-1.00459 -3.17499995,-1.00459 -1.1410156,-0.731738 -1.2402344,-1.153418 1.5378906,0.09922 15.4657228,0 -0.124024,0.446485 -1.178223,1.277442 -2.3316406,0 -4.1795898,2.095996 -1.8479491,2.083593 -3.6710937,8.483203 l -5.8415038,24.581452 q -3.6710937,1.26504 -4.0555663,1.26504 -0.1860352,0 -0.9673828,-2.74092 l -6.5608396,-23.51485 -5.581055,19.459277 q -0.868164,1.339453 -3.150195,5.494243 -1.190625,1.19062 -1.599902,1.22783 -0.186036,0 -0.682129,-2.00918 z"
         style="font-style:normal;font-variant:normal;font-weight:normal;font-stretch:normal;font-size:50.79999924px;font-family:'Typography Times';-inkscape-font-specification:'Typography Times, Normal';font-variant-ligatures:normal;font-variant-caps:normal;font-variant-numeric:normal;font-feature-settings:normal;text-align:start;writing-mode:lr-tb;text-anchor:start;fill:#000000;stroke-width:0.26458332;fill-opacity:1"
         id="path822"
         inkscape:connector-curvature="0" />
      <path
         d="m 18.722223,85.739569 q 0.322461,-0.260449 1.562695,-1.277441 1.240234,-1.029395 2.195215,-1.711523 0.967383,-0.682129 2.033984,-1.128614 1.066602,-0.458886 2.033985,-0.458886 1.74873,0.07441 2.145605,1.079003 0.409277,0.992188 0.409277,2.331641 0,1.116211 -0.806152,1.934766 -0.79375,0.806152 -1.141016,0.694531 -0.830957,0 -1.463476,-0.334863 -0.620117,-0.334864 -0.781348,-1.438672 -0.148828,-1.116211 -0.558105,-1.413867 -0.409278,-0.297657 -1.971973,0.657324 -1.066601,0.235644 -1.661914,0.694531 -0.595312,0.446484 -1.996777,1.736328 v 8.644434 q 0,3.906738 0.434082,5.543849 0.434082,1.62471 1.438672,2.23242 1.004589,0.60771 3.633886,0.60771 2.182813,0.59532 2.319239,0.85577 -1.599903,-0.0868 -18.8887697,0.18603 0.1736328,-0.64492 1.4138671,-1.45107 0.5084961,0 0.7069336,0.0992 1.897559,-0.0868 2.778125,-1.15342 0.880566,-1.0666 0.880566,-4.737697 v -7.925097 q 0,-2.616895 -0.905371,-3.43545 -0.905371,-0.830957 -2.5424801,-0.830957 l -2.5796875,-0.0124 q 3.2990236,-1.091406 5.5686526,-1.984375 2.269629,-0.905371 3.559472,-1.661914 0.173633,0.285254 2.083594,-2.071191 0,3.100586 0.09922,2.678906 z"
         style="font-style:normal;font-variant:normal;font-weight:normal;font-stretch:normal;font-size:50.79999924px;font-family:'Typography Times';-inkscape-font-specification:'Typography Times, Normal';font-variant-ligatures:normal;font-variant-caps:normal;font-variant-numeric:normal;font-feature-settings:normal;text-align:start;writing-mode:lr-tb;text-anchor:start;fill:#000000;stroke-width:0.26458332;fill-opacity:1"
         id="path824"
         inkscape:connector-curvature="0" />
      <path
         d="m 47.594882,91.122186 v -3.807519 q 0,-2.158008 -1.289844,-3.497461 -1.289844,-1.339453 -3.38584,-1.339453 -1.240234,0 -2.406054,0.409277 -1.153418,0.396875 -1.860352,1.091407 -0.706933,0.682128 -2.38125,3.460253 0,1.227832 0.198438,2.058789 0.21084,0.830957 -1.066602,0.905372 -3.038574,-0.347266 -3.299023,-2.790528 0.06201,-1.475879 1.426269,-2.976562 1.364258,-1.513086 3.80752,-2.492871 2.443261,-0.979785 5.481836,-0.979785 10.008691,0 10.008691,6.660058 v 11.980664 q 0,3.509863 2.182812,3.509863 0.533301,0 0.905371,-0.18603 0.384473,-0.18604 0.620118,-0.4837 0.235644,-0.31005 0.595312,-1.00459 0.359668,-0.69453 0.768945,-1.773531 0.508497,0 0.409278,1.463481 0,1.86035 -1.686719,3.175 -1.686719,1.30224 -3.59668,1.30224 -5.395019,0 -5.531445,-5.08496 0.09922,-0.40928 0.09922,-1.066601 -0.855762,2.914551 -3.571875,4.539261 -2.716113,1.6123 -5.667871,1.6123 -2.691309,0 -4.700488,-1.42627 -2.00918,-1.42627 -2.158008,-3.65869 0,-2.641699 1.21543,-4.427636 1.227832,-1.79834 3.410644,-2.877344 2.182813,-1.079004 4.985742,-1.5875 2.815332,-0.520898 6.486426,-0.706934 z m 0,1.26504 q -0.186035,0 -0.508496,-0.02481 -0.322461,-0.02481 -0.508496,-0.02481 -2.492871,0 -4.725293,0.706934 -2.22002,0.706933 -3.621484,2.108398 -1.401465,1.401465 -2.703711,3.609082 0.04961,0.186035 0.09922,0.58291 0.04961,0.396875 0.09922,0.58291 0.409277,1.61231 1.562695,2.51768 1.165821,0.89296 3.956348,0.76894 1.5875,-0.062 3.050977,-0.99219 1.463476,-0.93017 2.38125,-2.629293 0.917773,-1.711523 0.917773,-4.055566 z"
         style="font-style:normal;font-variant:normal;font-weight:normal;font-stretch:normal;font-size:50.79999924px;font-family:'Typography Times';-inkscape-font-specification:'Typography Times, Normal';font-variant-ligatures:normal;font-variant-caps:normal;font-variant-numeric:normal;font-feature-settings:normal;text-align:start;writing-mode:lr-tb;text-anchor:start;fill:#000000;stroke-width:0.26458332;fill-opacity:1"
         id="path826"
         inkscape:connector-curvature="0" />
      <path
         d="m 63.432678,83.345917 -6.126758,0.07441 q 2.38125,-0.917773 4.539258,-1.897558 2.158008,-0.979786 3.770313,-3.112989 1.624707,-2.145605 2.902148,-9.438183 -0.186035,3.100586 0.198438,13.109277 h 7.056933 q 0.42168,0.136426 2.257227,0.607715 -3.01377,0.917773 -2.257227,0.657324 h -7.056933 v 15.29209 q 0,2.951757 1.066601,4.154787 1.066602,1.20303 3.001367,1.37666 4.080371,0 5.18418,-3.85713 0.173633,-0.23564 0.731738,-2.145606 0.347266,2.356446 0.434082,2.455666 0,2.49287 -2.406055,3.89434 -2.393652,1.38906 -5.010546,1.38906 -8.284766,0 -8.284766,-6.660062 z"
         style="font-style:normal;font-variant:normal;font-weight:normal;font-stretch:normal;font-size:50.79999924px;font-family:'Typography Times';-inkscape-font-specification:'Typography Times, Normal';font-variant-ligatures:normal;font-variant-caps:normal;font-variant-numeric:normal;font-feature-settings:normal;text-align:start;writing-mode:lr-tb;text-anchor:start;fill:#000000;stroke-width:0.26458332;fill-opacity:1"
         id="path828"
         inkscape:connector-curvature="0" />
      <path
         d="m 89.576819,86.136444 q 1.339453,-0.830957 2.790527,-1.723925 1.463477,-0.892969 2.840137,-1.5875 1.37666,-0.706934 2.827734,-1.128614 1.451074,-0.434082 2.914553,-0.434082 5.18418,0 5.18418,5.593457 v 10.864453 q 0,2.902147 0.5209,4.216797 0.52089,1.31465 1.43867,1.5999 0.93017,0.28526 2.86494,0.28526 1.28984,0.45888 1.28984,1.1038 -0.68213,-0.14882 -16.333884,0.12403 0.173633,-0.64492 1.488281,-1.22783 1.0542,0 1.748731,-0.31006 0.706933,-0.32246 1.203032,-1.64951 0.49609,-1.32705 1.89755,-14.733988 0,-3.96875 -3.150191,-3.96875 -3.075782,0 -9.525,4.353223 v 10.417968 q 0,3.571877 0.768945,4.737697 0.768945,1.15342 1.971973,1.25264 0.409277,-0.0992 0.818554,-0.0992 0.868164,0.0124 1.438672,1.1038 -2.108398,0.16124 -16.321484,0 0.16123,-0.75654 1.364258,-1.20302 0.719336,0 1.116211,0.0992 1.823144,-0.0868 2.740918,-1.22784 0.917773,-1.15341 0.917773,-4.874117 V 78.211347 q 0,-3.050977 -0.409277,-4.489649 -0.409278,-1.451074 -1.265039,-1.90996 -0.84336,-0.458887 -2.517676,-1.00459 l -2.455664,0.03721 q 0,-0.310059 0.347266,-0.558106 0.359667,-0.248047 0.917773,-0.248047 1.823144,0 4.514453,-0.421679 2.691309,-0.434082 4.477246,-1.438672 1.922363,-1.95957 1.575098,-2.430859 0.359668,0 0,4.142382 z"
         style="font-style:normal;font-variant:normal;font-weight:normal;font-stretch:normal;font-size:50.79999924px;font-family:'Typography Times';-inkscape-font-specification:'Typography Times, Normal';font-variant-ligatures:normal;font-variant-caps:normal;font-variant-numeric:normal;font-feature-settings:normal;text-align:start;writing-mode:lr-tb;text-anchor:start;fill:#000000;stroke-width:0.26458332;fill-opacity:1"
         id="path830"
         inkscape:connector-curvature="0" />
    </g>
  </g>
</svg>
